<svg width="72" height="73" fill="none" xmlns="http://www.w3.org/2000/svg"><g clip-path="url(#a)"><path d="M66.402 31.02c2.19-1.804 3.963-3.705 3.997-6.923h-7.993c.036 3.214 1.818 5.12 3.996 6.923-2.171 1.795-3.976 3.705-3.996 6.923h7.993c-.048-3.21-1.843-5.095-3.997-6.923z" fill="#fff"/><path d="M70.923 24.866h-9.041a.769.769 0 1 1 0-1.538h9.041a.77.77 0 0 1 0 1.538zm0 13.846h-9.041a.769.769 0 0 1 0-1.538h9.041a.769.769 0 1 1 0 1.538z" fill="#1F81B0"/><path d="M15.523 32.29v-2.524l-1.793-.439a6.168 6.168 0 0 0-.543-1.314l.961-1.583-1.785-1.786-1.579.959a6.163 6.163 0 0 0-1.312-.547l-.44-1.798H6.507L6.07 25.05a6.17 6.17 0 0 0-1.314.543l-1.583-.961-1.786 1.785.959 1.579a6.162 6.162 0 0 0-.547 1.313L0 29.75v2.524l1.793.438c.13.458.312.899.543 1.315l-.961 1.583 1.785 1.785 1.579-.958c.415.232.855.416 1.312.547l.44 1.798h2.524l.439-1.793c.457-.13.898-.312 1.314-.543l1.583.961 1.785-1.785-.958-1.58c.232-.414.416-.855.547-1.312l1.798-.44z" fill="#ED5132"/><path d="M7.761 34.044a3.024 3.024 0 1 0 0-6.048 3.024 3.024 0 0 0 0 6.048z" fill="#fff"/><path d="m16.414 41.92 19.988-11.734 19.962 11.3v19.326L36.389 72.545 16.414 61.262V41.92z" fill="#F9F9F9"/><path d="M16.414 41.92v19.342l19.975 11.283V53.202L16.414 41.92zM36.389 53.202v19.343l19.975-11.733V41.486L36.389 53.202z" fill="#1F81B0"/><path d="m36.389 53.202-5.427 6.531-19.454-11.672 4.906-6.142 19.975 11.283zM36.389 53.202l5.88 6.228 19-11.37-4.905-6.575-19.975 11.717z" fill="#005680"/><path d="M50.802 21.199c0-7.918-6.475-14.336-14.462-14.336-7.988 0-14.463 6.419-14.463 14.336 0 4.265 1.88 8.094 4.862 10.72 2.527 2.224 4.058 5.381 4.058 8.765v1.04h11.085v-1.04c0-3.383 1.53-6.54 4.058-8.766 2.982-2.625 4.862-6.454 4.862-10.72zM36.352 3.85a.77.77 0 0 1-.768-.77V1.316a.77.77 0 1 1 1.538 0V3.08a.77.77 0 0 1-.77.77zM21.788 9.944a.766.766 0 0 1-.545-.226L20 8.468a.769.769 0 0 1 1.09-1.084l1.243 1.249c.455.457.099 1.311-.546 1.311zm-4.952 9.996h-1.757a.77.77 0 1 1 0-1.538h1.757a.769.769 0 1 1 0 1.538zm40.865-.072h-1.758a.77.77 0 1 1 0-1.538H57.7a.769.769 0 1 1 0 1.538zm-6.76-9.975c-.645 0-1-.854-.546-1.311l1.243-1.25a.768.768 0 1 1 1.09 1.086l-1.242 1.249a.767.767 0 0 1-.545.226z" fill="#FFBF4D"/><path d="M42.138 37.042H30.64a2.344 2.344 0 1 0 0 4.688h11.498a2.344 2.344 0 1 0 0-4.688z" fill="#1F81B0"/><path d="M41.73 41.73H31.048v2.84c0 1.02.826 1.847 1.846 1.847h6.99c1.02 0 1.846-.827 1.846-1.846V41.73z" fill="#1F81B0"/><path d="M45.922 22.051c0-.76-.241-1.461-.648-2.025a4.279 4.279 0 0 0 .328-1.65c0-2.322-1.837-4.205-4.103-4.205a4.05 4.05 0 0 0-.434.024c-.553-1.303-2.082-2.24-3.882-2.24-1.565 0-2.924.707-3.616 1.748a4.887 4.887 0 0 0-1.854-.358c-2.266 0-4.103 1.485-4.103 3.317 0 .41.093.804.262 1.168-1.777.583-3.048 2.134-3.048 3.957 0 2.322 2.063 4.204 4.61 4.204.946 0 1.826-.26 2.558-.707.671 1.193 1.995 2.005 3.52 2.005 1.548 0 2.89-.839 3.55-2.063-.34 1.23.33 2.516 1.517 2.91 1.13.322 1.838.924 2.363 1.965l2.632-2.278-1.878-2.57c1.292-.439 2.226-1.706 2.226-3.202z" fill="#FFF0DC"/><path d="M35.038 15.728a.777.777 0 0 0 1.555 0c0-1.253-.663-2.4-1.78-3.165a3.706 3.706 0 0 0-1.206 1.084c.89.475 1.43 1.247 1.43 2.081zm-2.915 7.463a.778.778 0 0 0-1.397-.682 4.456 4.456 0 0 0-.203 3.362 4.82 4.82 0 0 0 1.446-.574 2.857 2.857 0 0 1 .154-2.107zm7.514-.505a.769.769 0 0 1-.768-.752v-.02c-.02-.841-.696-1.516-1.507-1.495a.773.773 0 0 1-.733-1.048.77.77 0 0 1 .7-.49c1.663-.034 3.038 1.31 3.078 2.997v.022a.767.767 0 0 1-.752.786h-.018zm4.229-1.901c-.455-.005-.924.259-.924.778 0 .506.479.806.941.777h.008a3.384 3.384 0 0 0 2.003-.718 3.433 3.433 0 0 0-.609-1.579 1.85 1.85 0 0 1-1.42.742zm-10.488.01a.77.77 0 0 1-.757-.64c-.173-1.02-.941-1.745-1.818-1.723a.769.769 0 1 1-.036-1.537c1.654-.042 3.069 1.224 3.37 3.002a.777.777 0 0 1-.759.898z" fill="#FFCE99"/><path d="M61.114 69.435C67.126 69.435 72 64.56 72 58.548c0-6.013-4.874-10.887-10.886-10.887-6.011 0-10.885 4.874-10.885 10.887 0 6.013 4.874 10.887 10.886 10.887z" fill="#70DA40"/><path d="M60.862 62.11a.77.77 0 0 1-.77-.77v-1.286c0-1.394.916-2.357 1.773-3.15.853-.788 1.186-1.8.868-2.64-.629-1.665-3.9-1.563-3.9.43a.77.77 0 0 1-1.538 0c0-3.679 5.661-4.192 6.877-.974.544 1.438.06 3.091-1.263 4.314-.81.749-1.278 1.32-1.278 2.02v1.286a.77.77 0 0 1-.769.77zM61.114 65.694a1.01 1.01 0 1 0 0-2.022 1.01 1.01 0 0 0 0 2.022zM11.663 69.435c6.012 0 10.886-4.874 10.886-10.887 0-6.013-4.874-10.887-10.886-10.887S.778 52.535.778 58.548c0 6.013 4.873 10.887 10.885 10.887z" fill="#fff"/><path d="M11.7 66.534h-.074a3.414 3.414 0 0 1-3.413-3.414v-9.028h6.9v9.028a3.414 3.414 0 0 1-3.413 3.414z" fill="#F7634B"/><path d="M16.03 54.861H7.296a.77.77 0 0 1 0-1.538h8.732a.77.77 0 0 1 0 1.538z" fill="#fff"/><path d="M8.213 60.313v2.77a3.45 3.45 0 1 0 6.9 0v-2.77h-6.9z" fill="#ED5132"/><path d="M11.21 51.303a.907.907 0 1 0 0-1.814.907.907 0 0 0 0 1.814zM18.596 58.483a.933.933 0 1 0 0-1.866.933.933 0 0 0 0 1.866z" fill="#DDD"/><path d="m8.278 6.971-.893.19 1.033.293a1.538 1.538 0 0 1 1.083 1.148l.191.866.192-.866a1.539 1.539 0 0 1 1.082-1.148L12 7.16l-.894-.19a1.538 1.538 0 0 1-1.176-1.14l-.238-.978-.238.977a1.538 1.538 0 0 1-1.176 1.141z" fill="#C2C2FF"/><path d="m60.894 6.971-.894.19 1.034.293a1.539 1.539 0 0 1 1.082 1.148l.192.866.191-.866a1.538 1.538 0 0 1 1.083-1.148l1.033-.293-.893-.19a1.538 1.538 0 0 1-1.176-1.14l-.238-.978-.238.977a1.538 1.538 0 0 1-1.176 1.141z" fill="#FF8A80"/></g><defs><clipPath id="a"><path fill="#fff" transform="translate(0 .545)" d="M0 0h72v72H0z"/></clipPath></defs></svg>