<svg width="64" height="66" fill="none" xmlns="http://www.w3.org/2000/svg"><path d="M59.983 45.503C55.21 56.262 44.476 63.761 32 63.761c-16.914 0-30.625-13.782-30.625-30.784S15.086 2.193 32 2.193c12.476 0 23.21 7.499 27.983 18.258a30.811 30.811 0 0 0-2.641 12.526c0 4.46.944 8.7 2.641 12.526z" fill="#A7DDE2"/><path d="M2.5 48.557h55.919a30.89 30.89 0 0 1-6.197 7.54H5c-2.761 0-5-2.25-5-5.026a2.506 2.506 0 0 1 2.5-2.514zm48.291-39.89a31.9 31.9 0 0 0-.413-.318H11.5c-2.761 0-5 2.25-5 5.026V41.02c0 2.775 2.239 5.026 5 5.026H59c.26 0 .515-.02.764-.059a30.669 30.669 0 0 0 1.806-4.967c.003-.014.156-9.629.156-9.629 0-8.856-3.982-17.285-10.935-22.723z" fill="#056099"/><path d="M11 56.096H5c-2.761 0-5-2.25-5-5.025a2.506 2.506 0 0 1 2.5-2.514h6c-1.38 0-2.5 1.126-2.5 2.514 0 2.775 2.239 5.026 5 5.026zM16.5 8.35h-5c-2.761 0-5 2.25-5 5.026V41.02c0 2.775 2.239 5.026 5 5.026h5c-2.761 0-5-2.25-5-5.026V13.375c0-2.775 2.239-5.026 5-5.026zm9.75 40.209c0 2.081 1.679 3.769 3.75 3.769h11.25c2.071 0 3.75-1.688 3.75-3.77H26.25z" fill="#013F69"/><path d="M39.838 13.375a30.755 30.755 0 0 1 7.01 19.602c0 2.782-.368 5.478-1.056 8.041H14c-1.38 0-2.5-1.125-2.5-2.513V15.888a2.506 2.506 0 0 1 2.5-2.513h25.838z" fill="#75A5D3"/><path d="M22.688 41.018V24.684c0-.694.56-1.257 1.25-1.257h37.185a30.904 30.904 0 0 1 1.502 9.55c0 2.782-.367 5.478-1.056 8.041H22.688z" fill="#FFF5F5"/><path d="M17.5 38.505H15c-.69 0-1.25-.562-1.25-1.256V24.684c0-.694.56-1.257 1.25-1.257h2.5c.69 0 1.25.563 1.25 1.257v12.565c0 .694-.56 1.256-1.25 1.256z" fill="#5592CA"/><path d="M16.25 33.694a1.157 1.157 0 0 1 1.074.721 1.175 1.175 0 0 1-.63 1.527 1.157 1.157 0 0 1-1.518-.632 1.173 1.173 0 0 1 .629-1.527c.141-.06.292-.09.445-.09zm-1.163-2.728c0 .31.123.608.34.827a1.16 1.16 0 0 0 1.986-.826c0-.31-.123-.608-.34-.827a1.16 1.16 0 0 0-1.897.38 1.173 1.173 0 0 0-.089.447zm0-3.896c0 .31.123.608.34.827a1.16 1.16 0 0 0 1.986-.827c0-.31-.123-.607-.34-.826a1.16 1.16 0 0 0-1.645 0c-.218.219-.34.516-.34.826z" fill="#0571B3"/><path d="M57.5 37.249V24.684c0-.694-.56-1.257-1.25-1.257H47.5c-.69 0-1.25.563-1.25 1.257v12.565c0 .694.56 1.256 1.25 1.256h8.75c.69 0 1.25-.562 1.25-1.256z" fill="#75A5D3"/><path d="M14 13.375h22.306a30.812 30.812 0 0 1 4.569 7.54H11.5v-5.027a2.506 2.506 0 0 1 2.5-2.513z" fill="#FD73C4"/><path d="M24.039 17.145c0 .31-.123.607-.34.826a1.16 1.16 0 0 1-1.645 0 1.172 1.172 0 0 1 .822-1.995c.308 0 .604.123.822.342.218.22.34.517.34.827zM19 15.976a1.158 1.158 0 0 0-1.085.719 1.174 1.174 0 0 0 .636 1.533 1.156 1.156 0 0 0 1.263-.261 1.172 1.172 0 0 0-.814-1.99zm-3.876 0a1.16 1.16 0 0 0-.822.342 1.172 1.172 0 0 0 .822 1.996c.308 0 .604-.123.822-.343a1.172 1.172 0 0 0-.822-1.995z" fill="#F02399"/><path d="M64 7.219v19.098c0 2.776-2.239 5.026-5 5.026H45.89v-3.585c0-2.776-2.238-5.026-5-5.026H35V7.219c0-2.776 2.239-5.027 5-5.027h19c2.761 0 5 2.25 5 5.027z" fill="#C92E43"/><path d="M64 7.219V21.91a14.377 14.377 0 0 1-6.813 1.706c-8.008 0-14.5-6.526-14.5-14.576 0-2.475.614-4.806 1.697-6.847H59c2.761 0 5 2.25 5 5.026z" fill="#FD4343"/><path d="m56.222 20.11-8.445-.48-.477-8.489a1.26 1.26 0 0 1 .306-.78c.188-.218.444-.364.726-.414l6.898-1.223c2.005-.356 3.752 1.4 3.398 3.415l-1.218 6.934a1.246 1.246 0 0 1-1.188 1.037z" fill="#F5DC90"/><path d="M57.41 19.073a1.246 1.246 0 0 1-1.188 1.037l-5.369-.27-1.567-6.702a1.26 1.26 0 0 1 .306-.78c.188-.218.444-.364.726-.414l7.802.053a.447.447 0 0 1 .431.336c.017.063.02.13.008.194l-1.149 6.546z" fill="#F9EECF"/><path d="m54.848 8.791 2.75-.487a1.253 1.253 0 0 1 1.447 1.456l-.485 2.763-3.712-3.732z" fill="#013F69"/><path d="M56.792 17.854c.733.736.733 1.93 0 2.665L46.025 31.343H40c-2.761 0-5-2.25-5-5.026v-3.794l11.893-11.955a1.868 1.868 0 0 1 2.652 0l7.247 7.286z" fill="#ECB700"/><path d="M56.793 17.854c.732.736.732 1.93 0 2.665L46.025 31.343H40c-2.295 0-4.229-1.554-4.817-3.673l15.688-15.769 5.922 5.953z" fill="#FDE803"/><path d="m53.522 19.897-9.378 9.427c-.488.491-1.28.491-1.768 0a1.261 1.261 0 0 1 0-1.777l9.378-9.427c.488-.49 1.28-.49 1.768 0 .488.491.488 1.287 0 1.777zm-4.42-6.219a1.245 1.245 0 0 0-1.767 0l-9.378 9.427a1.261 1.261 0 0 0 0 1.777c.488.49 1.28.49 1.767 0l9.379-9.427a1.261 1.261 0 0 0 0-1.777z" fill="#CD9E00"/></svg>