<svg width="366" height="183" fill="none" xmlns="http://www.w3.org/2000/svg"><g clip-path="url(#a)"><path d="M146.992 46.767h9.563c3.573-6.554 9.678-11.523 17.006-13.589a9.845 9.845 0 0 0-12.052-5.65c.005-.15.012-.298.012-.45 0-7.31-5.929-13.238-13.24-13.238-6.306 0-11.578 4.408-12.911 10.31a7.936 7.936 0 0 0-2.517-.409 7.93 7.93 0 0 0-6.533 3.426 10.031 10.031 0 0 0-2.505-.318c-5.5 0-9.959 4.459-9.959 9.959s4.459 9.959 9.959 9.959h15.922" fill="#9FDEF7"/><path d="M201.384 40.74c-5.117-5.474-12.401-8.895-20.485-8.895-13.352 0-24.517 9.336-27.341 21.835a16.806 16.806 0 0 0-5.329-.867c-5.737 0-10.799 2.873-13.835 7.256a21.194 21.194 0 0 0-5.304-.673c-11.648 0-21.09 9.442-21.09 21.09 0 11.646 9.442 21.09 21.09 21.09h23.252c.049-7.169 5.873-12.965 13.052-12.965 1.325-.001 2.643.2 3.908.596-.006-.198-.015-.396-.015-.596 0-9.697 7.861-17.557 17.558-17.557 8.36 0 15.352 5.846 17.12 13.672a10.52 10.52 0 0 1 3.337-.542c3.592 0 6.763 1.798 8.664 4.544 1.084-.28 2.2-.423 3.321-.422 4.807 0 9.014 2.57 11.323 6.409A20.766 20.766 0 0 0 236 80.73c0-11.514-9.333-20.846-20.846-20.846a20.84 20.84 0 0 0-6.241.95c.01-.315.024-.632.024-.95 0-4.708-1.16-9.145-3.211-13.041" fill="#BEEAFC"/><path d="M130.361 59.435a21.012 21.012 0 0 0-1.271-.039c-11.648 0-21.09 9.442-21.09 21.09 0 11.646 9.442 21.09 21.09 21.09h23.252a13.005 13.005 0 0 1 1.616-6.206c-11.497-8.848-19.968-21.431-23.597-35.935z" fill="#AEE4FF"/><path d="M128.404 43.507c0-6.841 1.052-13.435 2.999-19.632a7.949 7.949 0 0 0-5.083 3.292 10.022 10.022 0 0 0-2.505-.318c-5.5 0-9.958 4.459-9.958 9.96 0 5.498 4.459 9.958 9.958 9.958h4.67a65.666 65.666 0 0 1-.081-3.26z" fill="#83D4ED"/><path d="M219.287 87.748c-1.147 0-2.26.147-3.321.422a10.518 10.518 0 0 0-8.664-4.544c-1.167 0-2.287.193-3.336.543-1.769-7.826-8.76-13.673-17.121-13.673-9.697 0-17.557 7.86-17.557 17.558 0 .2.009.398.015.595a13.047 13.047 0 0 0-3.909-.595c-7.208 0-13.053 5.843-13.053 13.054 0 7.208 5.845 13.052 13.053 13.052h53.894c7.293 0 13.206-5.913 13.206-13.206 0-7.294-5.913-13.206-13.207-13.206z" fill="#E4F2F9"/><path d="M179.315 84.381c0-4.712 1-9.19 2.796-13.235-7.396 2.067-12.824 8.85-12.824 16.907 0 .2.009.398.015.595a13.052 13.052 0 0 0-3.908-.595c-7.209 0-13.053 5.843-13.053 13.054 0 7.208 5.844 13.052 13.053 13.052h33.169c-11.348-5.113-19.248-16.523-19.248-29.778z" fill="#D7EDF9"/></g><g clip-path="url(#b)"><path d="M319.41 115.48h5.006a14.704 14.704 0 0 1 8.901-7.113 5.152 5.152 0 0 0-6.308-2.958c.002-.078.006-.156.006-.235a6.931 6.931 0 0 0-13.688-1.533 4.158 4.158 0 0 0-4.738 1.579 5.212 5.212 0 1 0-1.311 10.259h8.334" fill="#9FDEF7"/><path d="M347.881 112.324a14.638 14.638 0 0 0-10.723-4.656c-6.989 0-12.833 4.887-14.311 11.43a8.795 8.795 0 0 0-10.032 3.344 11.056 11.056 0 0 0-2.776-.352c-6.097 0-11.039 4.942-11.039 11.039 0 6.096 4.942 11.039 11.039 11.039h12.171a6.833 6.833 0 0 1 8.878-6.474c-.003-.104-.008-.207-.008-.312a9.19 9.19 0 0 1 18.152-2.033 5.504 5.504 0 0 1 6.281 2.094 6.908 6.908 0 0 1 7.666 3.134 10.869 10.869 0 0 0 2.821-7.32c0-6.027-4.885-10.912-10.912-10.912a10.895 10.895 0 0 0-3.266.498c.005-.165.012-.331.012-.498 0-2.464-.607-4.787-1.681-6.826" fill="#BEEAFC"/><path d="M310.704 122.11a11.33 11.33 0 0 0-.665-.02c-6.097 0-11.039 4.942-11.039 11.039 0 6.096 4.942 11.039 11.039 11.039h12.171a6.81 6.81 0 0 1 .846-3.248c-6.018-4.632-10.452-11.218-12.352-18.81z" fill="#AEE4FF"/><path d="M309.68 113.773a34.2 34.2 0 0 1 1.57-10.276 4.158 4.158 0 0 0-2.661 1.723 5.213 5.213 0 1 0-1.311 10.26h2.444a34.725 34.725 0 0 1-.042-1.707z" fill="#83D4ED"/><path d="M357.252 136.93a6.91 6.91 0 0 0-1.738.221 5.507 5.507 0 0 0-6.282-2.094 9.19 9.19 0 0 0-18.152 2.033c0 .105.005.209.008.312a6.832 6.832 0 1 0-2.046 13.353h28.21a6.913 6.913 0 1 0 0-13.825z" fill="#E4F2F9"/><path d="M336.329 135.168c0-2.466.523-4.81 1.463-6.928-3.871 1.082-6.712 4.633-6.712 8.85 0 .105.004.208.008.312a6.833 6.833 0 1 0-2.046 13.353h17.362c-5.94-2.676-10.075-8.649-10.075-15.587z" fill="#D7EDF9"/></g><g clip-path="url(#c)"><path d="M20.41 140.48h5.006a14.703 14.703 0 0 1 8.901-7.113 5.154 5.154 0 0 0-6.308-2.958c.002-.078.006-.156.006-.235a6.93 6.93 0 0 0-13.689-1.533 4.155 4.155 0 0 0-4.737 1.579 5.212 5.212 0 1 0-1.311 10.259h8.334" fill="#9FDEF7"/><path d="M48.88 137.324a14.636 14.636 0 0 0-10.722-4.656c-6.989 0-12.833 4.887-14.311 11.43a8.794 8.794 0 0 0-10.032 3.344 11.065 11.065 0 0 0-2.776-.352C4.942 147.09 0 152.032 0 158.129c0 6.096 4.942 11.039 11.04 11.039h12.17a6.832 6.832 0 0 1 8.878-6.474c-.003-.104-.008-.207-.008-.312a9.19 9.19 0 0 1 18.152-2.033 5.506 5.506 0 0 1 6.281 2.094 6.908 6.908 0 0 1 7.666 3.134 10.869 10.869 0 0 0 2.82-7.32c0-6.027-4.884-10.912-10.91-10.912a10.9 10.9 0 0 0-3.267.498c.005-.165.012-.331.012-.498a14.61 14.61 0 0 0-1.68-6.826" fill="#BEEAFC"/><path d="M11.704 147.11c-.221-.013-.443-.02-.665-.02C4.942 147.09 0 152.032 0 158.129c0 6.096 4.942 11.039 11.039 11.039H23.21a6.802 6.802 0 0 1 .846-3.248c-6.018-4.632-10.452-11.218-12.352-18.81z" fill="#AEE4FF"/><path d="M10.68 138.773c0-3.581.55-7.032 1.57-10.276a4.16 4.16 0 0 0-2.66 1.723 5.213 5.213 0 1 0-1.311 10.26h2.443a34.976 34.976 0 0 1-.042-1.707z" fill="#83D4ED"/><path d="M58.252 161.93c-.6 0-1.183.077-1.739.221a5.505 5.505 0 0 0-6.28-2.094 9.19 9.19 0 0 0-18.152 2.033c0 .105.004.209.007.312a6.833 6.833 0 1 0-2.046 13.353h28.21a6.913 6.913 0 1 0 0-13.825z" fill="#E4F2F9"/><path d="M37.329 160.168c0-2.466.523-4.81 1.463-6.928-3.871 1.082-6.712 4.633-6.712 8.85 0 .105.005.208.008.312a6.832 6.832 0 0 0-8.878 6.521 6.832 6.832 0 0 0 6.832 6.832h17.362c-5.94-2.676-10.075-8.649-10.075-15.587z" fill="#D7EDF9"/></g><defs><clipPath id="a"><path fill="#fff" transform="translate(108)" d="M0 0h128v128H0z"/></clipPath><clipPath id="b"><path fill="#fff" transform="translate(299 91)" d="M0 0h67v67H0z"/></clipPath><clipPath id="c"><path fill="#fff" transform="translate(0 116)" d="M0 0h67v67H0z"/></clipPath></defs></svg>