<svg width="1050" height="761" fill="none" xmlns="http://www.w3.org/2000/svg"><g clip-path="url(#a)"><path d="M166.992 149.767h9.563c3.573-6.554 9.678-11.523 17.006-13.589a9.845 9.845 0 0 0-12.052-5.65c.005-.149.012-.298.012-.449 0-7.311-5.929-13.239-13.24-13.239-6.306 0-11.578 4.408-12.911 10.31a7.942 7.942 0 0 0-9.05 3.017 10.031 10.031 0 0 0-2.505-.318c-5.5 0-9.959 4.459-9.959 9.959 0 5.499 4.459 9.959 9.959 9.959h15.922" fill="#9FDEF7"/><path d="M221.384 143.739c-5.117-5.473-12.401-8.894-20.485-8.894-13.352 0-24.517 9.336-27.341 21.835a16.814 16.814 0 0 0-5.329-.867c-5.737 0-10.799 2.873-13.835 7.256a21.143 21.143 0 0 0-5.304-.673c-11.648 0-21.09 9.442-21.09 21.089 0 11.647 9.442 21.091 21.09 21.091h23.252c.049-7.169 5.873-12.965 13.052-12.965a13.05 13.05 0 0 1 3.908.596c-.006-.198-.015-.396-.015-.596 0-9.697 7.861-17.557 17.558-17.557 8.36 0 15.352 5.846 17.12 13.672a10.545 10.545 0 0 1 3.337-.542c3.592 0 6.763 1.798 8.664 4.544 1.084-.281 2.2-.423 3.321-.422 4.807 0 9.014 2.569 11.323 6.409A20.766 20.766 0 0 0 256 183.73c0-11.514-9.333-20.846-20.846-20.846a20.833 20.833 0 0 0-6.241.951c.01-.316.024-.633.024-.951 0-4.708-1.16-9.145-3.211-13.041" fill="#BEEAFC"/><path d="M150.361 162.435a20.77 20.77 0 0 0-1.271-.039c-11.648-.001-21.09 9.442-21.09 21.089 0 11.647 9.442 21.09 21.09 21.09h23.252a13.001 13.001 0 0 1 1.616-6.205c-11.497-8.849-19.968-21.431-23.597-35.935z" fill="#AEE4FF"/><path d="M148.404 146.506a65.4 65.4 0 0 1 2.999-19.632 7.95 7.95 0 0 0-5.083 3.293 10.031 10.031 0 0 0-2.505-.318c-5.5 0-9.958 4.459-9.958 9.959 0 5.499 4.459 9.959 9.958 9.959h4.67a65.683 65.683 0 0 1-.081-3.261z" fill="#83D4ED"/><path d="M239.287 190.748c-1.147 0-2.26.147-3.321.422a10.52 10.52 0 0 0-12-4.001c-1.769-7.826-8.76-13.673-17.121-13.673-9.697 0-17.557 7.861-17.557 17.558 0 .2.009.398.015.595a13.05 13.05 0 0 0-3.909-.595c-7.208 0-13.053 5.843-13.053 13.054 0 7.208 5.845 13.052 13.053 13.052h53.894c7.293 0 13.206-5.913 13.206-13.206 0-7.294-5.913-13.206-13.207-13.206z" fill="#E4F2F9"/><path d="M199.315 187.382c0-4.712 1-9.19 2.796-13.236-7.396 2.067-12.824 8.851-12.824 16.907 0 .2.009.398.015.596a13.05 13.05 0 0 0-3.908-.596c-7.209 0-13.053 5.843-13.053 13.054 0 7.209 5.844 13.053 13.053 13.053h33.169c-11.348-5.114-19.248-16.523-19.248-29.778z" fill="#D7EDF9"/></g><g clip-path="url(#b)"><path d="M692.992 46.767h9.563c3.573-6.554 9.678-11.523 17.006-13.589a9.845 9.845 0 0 0-12.052-5.65c.005-.15.012-.298.012-.45 0-7.31-5.929-13.238-13.24-13.238-6.306 0-11.578 4.408-12.911 10.31a7.936 7.936 0 0 0-2.517-.409 7.93 7.93 0 0 0-6.533 3.426 10.031 10.031 0 0 0-2.505-.318c-5.5 0-9.959 4.459-9.959 9.959s4.459 9.959 9.959 9.959h15.922" fill="#9FDEF7"/><path d="M747.384 40.74c-5.117-5.474-12.401-8.895-20.485-8.895-13.352 0-24.517 9.336-27.341 21.835a16.806 16.806 0 0 0-5.329-.867c-5.737 0-10.799 2.873-13.835 7.256a21.194 21.194 0 0 0-5.304-.673c-11.648 0-21.09 9.442-21.09 21.09 0 11.646 9.442 21.09 21.09 21.09h23.252c.049-7.169 5.873-12.965 13.052-12.965 1.325-.001 2.643.2 3.908.596-.006-.198-.015-.396-.015-.596 0-9.697 7.861-17.557 17.558-17.557 8.36 0 15.352 5.846 17.12 13.672a10.52 10.52 0 0 1 3.337-.542c3.592 0 6.763 1.798 8.664 4.544 1.084-.28 2.2-.423 3.321-.422 4.807 0 9.014 2.57 11.323 6.409A20.766 20.766 0 0 0 782 80.73c0-11.514-9.333-20.846-20.846-20.846a20.84 20.84 0 0 0-6.241.95c.01-.315.024-.632.024-.95 0-4.708-1.16-9.145-3.211-13.041" fill="#BEEAFC"/><path d="M676.361 59.435c-.424-.026-.848-.04-1.271-.04-11.648 0-21.09 9.443-21.09 21.09s9.442 21.09 21.09 21.09h23.252c.012-2.17.568-4.304 1.616-6.206-11.497-8.848-19.968-21.43-23.597-35.934z" fill="#AEE4FF"/><path d="M674.403 43.506c0-6.84 1.052-13.434 3-19.632a7.949 7.949 0 0 0-5.083 3.293 10.022 10.022 0 0 0-2.505-.318c-5.5 0-9.958 4.459-9.958 9.959 0 5.499 4.458 9.959 9.958 9.959h4.67a66.905 66.905 0 0 1-.082-3.261z" fill="#83D4ED"/><path d="M765.287 87.748c-1.147 0-2.26.147-3.321.422a10.518 10.518 0 0 0-8.664-4.544c-1.167 0-2.287.193-3.336.543-1.769-7.826-8.761-13.673-17.121-13.673-9.697 0-17.557 7.86-17.557 17.558 0 .2.008.398.014.595a13.04 13.04 0 0 0-3.908-.595c-7.209 0-13.053 5.843-13.053 13.054 0 7.208 5.845 13.052 13.053 13.052h53.893c7.294 0 13.207-5.913 13.207-13.206 0-7.294-5.913-13.206-13.207-13.206z" fill="#E4F2F9"/><path d="M725.315 84.382c0-4.712 1-9.19 2.796-13.236-7.396 2.067-12.824 8.851-12.824 16.907 0 .2.009.398.015.596a13.052 13.052 0 0 0-3.908-.596c-7.209 0-13.053 5.844-13.053 13.054 0 7.209 5.844 13.053 13.053 13.053h33.169c-11.348-5.114-19.248-16.523-19.248-29.778z" fill="#D7EDF9"/></g><g clip-path="url(#c)"><path d="M1005.5 142.384h4.78a14.036 14.036 0 0 1 8.5-6.795 4.928 4.928 0 0 0-6.03-2.825c.01-.075.01-.149.01-.225a6.62 6.62 0 0 0-13.075-1.464 3.967 3.967 0 0 0-4.525 1.508 4.98 4.98 0 1 0-1.253 9.8h7.963" fill="#9FDEF7"/><path d="M1032.69 139.37a13.979 13.979 0 0 0-10.24-4.447c-6.68 0-12.26 4.668-13.67 10.917a8.427 8.427 0 0 0-2.67-.433c-2.86 0-5.4 1.436-6.913 3.628a10.595 10.595 0 0 0-2.652-.337c-5.824 0-10.545 4.721-10.545 10.545s4.721 10.545 10.545 10.545h11.625a6.533 6.533 0 0 1 8.48-6.184c0-.099-.01-.198-.01-.298a8.78 8.78 0 0 1 17.34-1.942 5.264 5.264 0 0 1 6 2 6.611 6.611 0 0 1 7.33 2.994 10.401 10.401 0 0 0 2.69-6.993c0-5.757-4.67-10.423-10.42-10.423-1.06-.001-2.11.16-3.12.476 0-.158.01-.316.01-.476 0-2.354-.58-4.572-1.61-6.52" fill="#BEEAFC"/><path d="M997.18 148.718c-.211-.013-.423-.02-.635-.02-5.824 0-10.545 4.721-10.545 10.545 0 5.823 4.721 10.545 10.545 10.545h11.625c.01-1.085.28-2.152.81-3.103-5.75-4.424-9.985-10.715-11.8-17.967z" fill="#AEE4FF"/><path d="M996.202 140.753c0-3.42.526-6.717 1.5-9.815a3.967 3.967 0 0 0-2.542 1.646 4.98 4.98 0 1 0-1.252 9.8h2.334a34.108 34.108 0 0 1-.04-1.631z" fill="#83D4ED"/><path d="M1041.64 162.874c-.57 0-1.13.074-1.66.211a5.249 5.249 0 0 0-4.33-2.272c-.58 0-1.14.096-1.67.271a8.776 8.776 0 0 0-8.56-6.836c-4.85 0-8.78 3.93-8.78 8.779 0 .1.01.199.01.298a6.525 6.525 0 0 0-8.48 6.229 6.526 6.526 0 0 0 6.53 6.526h26.94c3.65 0 6.61-2.956 6.61-6.603a6.607 6.607 0 0 0-6.61-6.603z" fill="#E4F2F9"/><path d="M1021.66 161.191c0-2.356.5-4.595 1.4-6.618-3.7 1.034-6.42 4.426-6.42 8.454 0 .1.01.199.01.297a6.525 6.525 0 0 0-8.48 6.23 6.526 6.526 0 0 0 6.53 6.526h16.58c-5.67-2.557-9.62-8.262-9.62-14.889z" fill="#D7EDF9"/></g><g clip-path="url(#d)"><path d="M38.992 603.767h9.563c3.573-6.554 9.678-11.523 17.006-13.589a9.846 9.846 0 0 0-12.052-5.65c.005-.149.012-.298.012-.449 0-7.311-5.929-13.239-13.24-13.239-6.306 0-11.578 4.408-12.91 10.31a7.948 7.948 0 0 0-9.051 3.017 10.03 10.03 0 0 0-2.505-.318c-5.5 0-9.959 4.459-9.959 9.959 0 5.499 4.46 9.959 9.959 9.959h15.922" fill="#9FDEF7"/><path d="M93.384 597.739c-5.117-5.473-12.401-8.894-20.485-8.894-13.352 0-24.517 9.336-27.34 21.835a16.82 16.82 0 0 0-5.33-.867c-5.737 0-10.8 2.873-13.835 7.256a21.139 21.139 0 0 0-5.304-.673C9.442 616.396 0 625.838 0 637.485c0 11.647 9.442 21.091 21.09 21.091h23.252c.05-7.169 5.873-12.965 13.052-12.965 1.325-.001 2.643.2 3.908.596-.005-.198-.014-.396-.014-.596 0-9.697 7.86-17.557 17.557-17.557 8.36 0 15.352 5.846 17.12 13.672a10.539 10.539 0 0 1 3.337-.542c3.592 0 6.763 1.798 8.664 4.544 1.084-.281 2.2-.423 3.321-.422 4.807 0 9.014 2.569 11.323 6.409A20.766 20.766 0 0 0 128 637.73c0-11.514-9.333-20.846-20.846-20.846a20.833 20.833 0 0 0-6.241.951c.01-.316.024-.633.024-.951 0-4.708-1.16-9.145-3.211-13.041" fill="#BEEAFC"/><path d="M22.36 616.435a20.725 20.725 0 0 0-1.27-.039c-11.648 0-21.09 9.442-21.09 21.09 0 11.646 9.442 21.09 21.09 21.09h23.252a12.996 12.996 0 0 1 1.616-6.206c-11.497-8.848-19.968-21.431-23.598-35.935z" fill="#AEE4FF"/><path d="M20.404 600.507a65.369 65.369 0 0 1 3-19.632 7.943 7.943 0 0 0-5.084 3.292 10.03 10.03 0 0 0-2.505-.318c-5.5 0-9.958 4.459-9.958 9.959s4.459 9.959 9.958 9.959h4.67a66.505 66.505 0 0 1-.081-3.26z" fill="#83D4ED"/><path d="M111.287 644.748c-1.147 0-2.26.147-3.321.422a10.52 10.52 0 0 0-12-4.001c-1.769-7.826-8.76-13.673-17.121-13.673-9.697 0-17.557 7.861-17.557 17.558 0 .2.009.398.015.595a13.047 13.047 0 0 0-3.909-.595c-7.208 0-13.053 5.843-13.053 13.054 0 7.208 5.845 13.052 13.053 13.052h53.894c7.293 0 13.206-5.913 13.206-13.206 0-7.294-5.913-13.206-13.207-13.206z" fill="#E4F2F9"/><path d="M71.315 641.381c0-4.712 1-9.189 2.796-13.235-7.396 2.067-12.824 8.851-12.824 16.907 0 .2.01.398.015.595a13.048 13.048 0 0 0-3.908-.595c-7.209 0-13.053 5.843-13.053 13.054 0 7.208 5.844 13.052 13.053 13.052h33.17c-11.349-5.113-19.25-16.523-19.25-29.778z" fill="#D7EDF9"/></g><path d="M500.992 679.767h9.563c3.573-6.554 9.678-11.523 17.006-13.589a9.845 9.845 0 0 0-12.052-5.65c.005-.149.012-.298.012-.449 0-7.311-5.929-13.239-13.24-13.239-6.306 0-11.578 4.408-12.911 10.31a7.942 7.942 0 0 0-9.05 3.017 10.031 10.031 0 0 0-2.505-.318c-5.5 0-9.959 4.459-9.959 9.959 0 5.499 4.459 9.959 9.959 9.959h15.922" fill="#9FDEF7"/><path d="M555.384 673.739c-5.117-5.473-12.401-8.894-20.485-8.894-13.352 0-24.517 9.336-27.341 21.835a16.814 16.814 0 0 0-5.329-.867c-5.737 0-10.799 2.873-13.835 7.256a21.143 21.143 0 0 0-5.304-.673c-11.648 0-21.09 9.442-21.09 21.089 0 11.647 9.442 21.091 21.09 21.091h23.252c.049-7.169 5.873-12.965 13.052-12.965a13.05 13.05 0 0 1 3.908.596c-.006-.198-.015-.396-.015-.596 0-9.697 7.861-17.557 17.558-17.557 8.36 0 15.352 5.846 17.12 13.672a10.545 10.545 0 0 1 3.337-.542c3.592 0 6.763 1.798 8.664 4.544 1.084-.281 2.2-.423 3.321-.422 4.807 0 9.014 2.569 11.323 6.409A20.766 20.766 0 0 0 590 713.73c0-11.514-9.333-20.846-20.846-20.846a20.833 20.833 0 0 0-6.241.951c.01-.316.024-.633.024-.951 0-4.708-1.16-9.145-3.211-13.041" fill="#BEEAFC"/><path d="M484.361 692.435a20.77 20.77 0 0 0-1.271-.039c-11.648 0-21.09 9.442-21.09 21.09 0 11.646 9.442 21.09 21.09 21.09h23.252a13.005 13.005 0 0 1 1.616-6.206c-11.497-8.848-19.968-21.431-23.597-35.935z" fill="#AEE4FF"/><path d="M482.404 676.507a65.39 65.39 0 0 1 2.999-19.632 7.945 7.945 0 0 0-5.083 3.292 10.031 10.031 0 0 0-2.505-.318c-5.5 0-9.958 4.459-9.958 9.959s4.459 9.959 9.958 9.959h4.67a65.643 65.643 0 0 1-.081-3.26z" fill="#83D4ED"/><path d="M573.287 720.748c-1.147 0-2.26.147-3.321.422a10.52 10.52 0 0 0-12-4.001c-1.769-7.826-8.76-13.673-17.121-13.673-9.697 0-17.557 7.861-17.557 17.558 0 .2.009.398.015.595a13.05 13.05 0 0 0-3.909-.595c-7.208 0-13.053 5.843-13.053 13.054 0 7.208 5.845 13.052 13.053 13.052h53.894c7.293 0 13.206-5.913 13.206-13.206 0-7.294-5.913-13.206-13.207-13.206z" fill="#E4F2F9"/><path d="M533.315 717.381c0-4.712 1-9.189 2.796-13.235-7.396 2.067-12.824 8.851-12.824 16.907 0 .2.009.398.015.595a13.048 13.048 0 0 0-3.908-.595c-7.209 0-13.053 5.843-13.053 13.054 0 7.208 5.844 13.052 13.053 13.052h33.169c-11.348-5.113-19.248-16.523-19.248-29.778z" fill="#D7EDF9"/><path d="M785.191 717.15h4.708a13.829 13.829 0 0 1 8.37-6.688 4.847 4.847 0 0 0-5.932-2.781c.002-.073.005-.147.005-.221a6.517 6.517 0 0 0-12.871-1.442 3.906 3.906 0 0 0-4.454 1.485 4.9 4.9 0 0 0-6.134 4.745 4.902 4.902 0 0 0 4.901 4.902h7.837" fill="#9FDEF7"/><path d="M811.963 714.183a13.766 13.766 0 0 0-10.083-4.377c-6.572 0-12.067 4.595-13.457 10.747a8.268 8.268 0 0 0-9.432 3.144c-.853-.22-1.73-.331-2.611-.331-5.733 0-10.38 4.647-10.38 10.38 0 5.733 4.647 10.38 10.38 10.38h11.445a6.424 6.424 0 0 1 8.347-6.087c-.003-.098-.007-.195-.007-.294a8.641 8.641 0 0 1 17.068-1.912 5.177 5.177 0 0 1 5.906 1.97 6.495 6.495 0 0 1 7.208 2.947 10.22 10.22 0 0 0 2.653-6.884c0-5.667-4.594-10.26-10.26-10.26a10.256 10.256 0 0 0-3.072.468c.005-.155.012-.311.012-.468 0-2.317-.571-4.501-1.581-6.418" fill="#BEEAFC"/><path d="M777.006 723.386c-.209-.013-.417-.02-.626-.02-5.733 0-10.38 4.647-10.38 10.38 0 5.733 4.647 10.381 10.38 10.381h11.445a6.401 6.401 0 0 1 .795-3.055c-5.659-4.355-9.828-10.548-11.614-17.686z" fill="#AEE4FF"/><path d="M776.043 715.545c0-3.366.517-6.612 1.476-9.662a3.913 3.913 0 0 0-2.502 1.62 4.9 4.9 0 1 0-1.233 9.647h2.299a31.779 31.779 0 0 1-.04-1.605z" fill="#83D4ED"/><path d="M820.774 737.32c-.564 0-1.112.073-1.634.208a5.18 5.18 0 0 0-5.907-1.969 8.642 8.642 0 0 0-17.068 1.912c0 .098.004.196.007.293a6.425 6.425 0 1 0-1.923 12.556h26.525a6.5 6.5 0 1 0 0-13z" fill="#E4F2F9"/><path d="M801.1 735.664c0-2.319.492-4.523 1.377-6.515-3.641 1.018-6.312 4.357-6.312 8.322 0 .098.004.196.007.293a6.424 6.424 0 1 0-1.923 12.556h16.325c-5.585-2.517-9.474-8.132-9.474-14.656z" fill="#D7EDF9"/><g clip-path="url(#e)"><path d="M458.41 157.48h5.006a14.704 14.704 0 0 1 8.901-7.113 5.152 5.152 0 0 0-6.308-2.958c.002-.078.006-.156.006-.235a6.931 6.931 0 0 0-6.931-6.93c-3.3 0-6.06 2.307-6.757 5.397a4.158 4.158 0 0 0-4.738 1.579 5.212 5.212 0 1 0-1.311 10.259h8.334" fill="#9FDEF7"/><path d="M486.881 154.325a14.638 14.638 0 0 0-10.723-4.656c-6.989 0-12.833 4.887-14.311 11.429a8.813 8.813 0 0 0-2.79-.453 8.792 8.792 0 0 0-7.242 3.798 11.057 11.057 0 0 0-2.776-.353c-6.097 0-11.039 4.943-11.039 11.039 0 6.097 4.942 11.04 11.039 11.04h12.171a6.832 6.832 0 0 1 8.878-6.475c-.003-.103-.008-.207-.008-.311a9.19 9.19 0 0 1 18.152-2.034 5.515 5.515 0 0 1 6.281 2.095 6.908 6.908 0 0 1 7.666 3.134 10.871 10.871 0 0 0 2.821-7.321c0-6.027-4.885-10.911-10.912-10.911a10.925 10.925 0 0 0-3.266.497c.005-.165.012-.331.012-.497 0-2.465-.607-4.787-1.681-6.826" fill="#BEEAFC"/><path d="M449.704 164.11a11.33 11.33 0 0 0-.665-.02c-6.097 0-11.039 4.942-11.039 11.039 0 6.096 4.942 11.039 11.039 11.039h12.171a6.81 6.81 0 0 1 .846-3.248c-6.018-4.632-10.452-11.218-12.352-18.81z" fill="#AEE4FF"/><path d="M448.68 155.773c0-3.58.55-7.032 1.57-10.276a4.156 4.156 0 0 0-2.661 1.724 5.213 5.213 0 1 0-1.311 10.259h2.444a34.725 34.725 0 0 1-.042-1.707z" fill="#83D4ED"/><path d="M496.252 178.931a6.91 6.91 0 0 0-1.738.221 5.508 5.508 0 0 0-6.282-2.095 9.19 9.19 0 0 0-18.152 2.034c0 .104.005.208.008.311a6.832 6.832 0 0 0-8.878 6.522 6.832 6.832 0 0 0 6.832 6.832h28.21a6.913 6.913 0 1 0 0-13.825z" fill="#E4F2F9"/><path d="M475.329 177.168c0-2.466.523-4.81 1.463-6.928-3.871 1.082-6.712 4.633-6.712 8.85 0 .105.004.208.008.312a6.833 6.833 0 1 0-2.046 13.353h17.362c-5.94-2.676-10.075-8.649-10.075-15.587z" fill="#D7EDF9"/></g><g clip-path="url(#f)"><path d="M272.41 588.48h5.006a14.704 14.704 0 0 1 8.901-7.113 5.152 5.152 0 0 0-6.308-2.958c.002-.078.006-.156.006-.235a6.931 6.931 0 0 0-6.931-6.93c-3.3 0-6.06 2.307-6.757 5.397a4.158 4.158 0 0 0-4.738 1.579 5.212 5.212 0 1 0-1.311 10.259h8.334" fill="#9FDEF7"/><path d="M300.881 585.324a14.638 14.638 0 0 0-10.723-4.656c-6.989 0-12.833 4.887-14.311 11.43a8.795 8.795 0 0 0-10.032 3.344 11.056 11.056 0 0 0-2.776-.352c-6.097 0-11.039 4.942-11.039 11.039 0 6.096 4.942 11.039 11.039 11.039h12.171a6.833 6.833 0 0 1 8.878-6.474c-.003-.104-.008-.207-.008-.312a9.19 9.19 0 0 1 18.152-2.033 5.504 5.504 0 0 1 6.281 2.094 6.908 6.908 0 0 1 7.666 3.134 10.869 10.869 0 0 0 2.821-7.32c0-6.027-4.885-10.912-10.912-10.912a10.895 10.895 0 0 0-3.266.498c.005-.165.012-.331.012-.498 0-2.464-.607-4.787-1.681-6.826" fill="#BEEAFC"/><path d="M263.704 595.11a11.33 11.33 0 0 0-.665-.02c-6.097 0-11.039 4.942-11.039 11.039 0 6.096 4.942 11.039 11.039 11.039h12.171a6.81 6.81 0 0 1 .846-3.248c-6.018-4.632-10.452-11.218-12.352-18.81z" fill="#AEE4FF"/><path d="M262.68 586.773a34.2 34.2 0 0 1 1.57-10.276 4.158 4.158 0 0 0-2.661 1.723 5.213 5.213 0 1 0-1.311 10.26h2.444a34.725 34.725 0 0 1-.042-1.707z" fill="#83D4ED"/><path d="M310.252 609.93a6.91 6.91 0 0 0-1.738.221 5.507 5.507 0 0 0-6.282-2.094 9.19 9.19 0 0 0-18.152 2.033c0 .105.005.209.008.312a6.832 6.832 0 1 0-2.046 13.353h28.21a6.913 6.913 0 1 0 0-13.825z" fill="#E4F2F9"/><path d="M289.329 608.168c0-2.466.523-4.81 1.463-6.928-3.871 1.082-6.712 4.633-6.712 8.85 0 .105.004.208.008.312a6.833 6.833 0 1 0-2.046 13.353h17.362c-5.94-2.676-10.075-8.649-10.075-15.587z" fill="#D7EDF9"/></g><defs><clipPath id="a"><path fill="#fff" transform="translate(128 103)" d="M0 0h128v128H0z"/></clipPath><clipPath id="b"><path fill="#fff" transform="translate(654)" d="M0 0h128v128H0z"/></clipPath><clipPath id="c"><path fill="#fff" transform="translate(986 119)" d="M0 0h64v64H0z"/></clipPath><clipPath id="d"><path fill="#fff" transform="translate(0 557)" d="M0 0h128v128H0z"/></clipPath><clipPath id="e"><path fill="#fff" transform="translate(438 133)" d="M0 0h67v67H0z"/></clipPath><clipPath id="f"><path fill="#fff" transform="translate(252 564)" d="M0 0h67v67H0z"/></clipPath></defs></svg>