<svg width="390" height="260" fill="none" xmlns="http://www.w3.org/2000/svg"><path d="M304.538 105.368h74.095l-12.069 8.71v17.16a3.577 3.577 0 0 1-3.578 3.577h-58.448a3.578 3.578 0 0 1-3.578-3.577v-22.293a3.578 3.578 0 0 1 3.578-3.577z" fill="#F5F5F5"/><path d="M307.627 117.478c0 .073 11.175.13 24.96.13s24.96-.057 24.96-.13c0-.072-11.175-.13-24.96-.13s-24.96.058-24.96.13zM307.627 124.056c0 .073 11.175.13 24.96.13s24.96-.057 24.96-.13c0-.072-11.175-.13-24.96-.13s-24.96.063-24.96.13zM192.005 42.136h-3.468v11.616h3.468V42.136zM163.041 40.456h-3.468v13.296h3.468V40.456zM170.285 37.684h-3.469v16.068h3.469V37.684zM177.523 38.563h-3.469v15.19h3.469v-15.19zM184.761 33.425h-3.468v20.327h3.468V33.425zM199.243 33.524h-3.468v20.228h3.468V33.524zM206.487 40.17h-3.468v13.582h3.468V40.17zM213.725 34.414h-3.468v19.338h3.468V34.414zM220.969 30.061H217.5v23.691h3.469v-23.69zM228.207 34.315h-3.468v19.437h3.468V34.315z" fill="#E0E0E0"/><path d="m319.571 52.676 28.673-4.384a29.016 29.016 0 1 1-25.48-24.44l-3.193 28.824z" fill="#EBEBEB"/><path d="m328.874 23.92-3.479 22.225 21.84-4.098s-3.229-12.438-18.361-18.127z" fill="#E0E0E0"/><path d="M26.77 106.6a14.217 14.217 0 1 1 14.445 14.04A14.272 14.272 0 0 1 26.77 106.6zm21.013-.343a6.794 6.794 0 0 0-8.244-6.494 6.799 6.799 0 0 0-4.789 9.338 6.792 6.792 0 0 0 6.33 4.098 6.82 6.82 0 0 0 6.703-6.942z" fill="#F5F5F5"/><path d="M26.77 106.6a14.27 14.27 0 0 1 13.988-14.513l.12 7.451a6.832 6.832 0 0 0 .202 13.661l.135 7.441A14.262 14.262 0 0 1 26.77 106.6z" fill="#E0E0E0"/><path d="M39.484 90.938a16.256 16.256 0 0 1 16.64 16.187l-8.684.135c-.068-4.404-3.422-7.176-7.8-7.103l-.156-9.22z" fill="#EBEBEB"/><path d="M119.143 156.749h-18.076v21.486h18.076v-21.486z" fill="#F5F5F5"/><path d="M101.696 155.345H20.02v24.237h81.676v-24.237z" fill="#E0E0E0"/><path d="M119.689 157.383H99.502v-2.038h20.187a1.04 1.04 0 0 1 1.04 1.04 1.04 1.04 0 0 1-1.04.998zM119.689 179.582H99.502v-2.039h20.187a1.041 1.041 0 0 1 1.04 1.04 1.04 1.04 0 0 1-1.04.999z" fill="#E0E0E0"/><path d="M95.275 155.345h-9.652v24.237h9.651v-24.237zM37.435 155.615h-9.651v24.237h9.65v-24.237z" fill="#EBEBEB"/><path d="M119.142 160.3c0 .063-3.91.11-8.736.11-4.825 0-8.736-.047-8.736-.11 0-.062 3.911-.109 8.736-.109 4.826 0 8.736.052 8.736.109zM119.142 163.524c0 .058-3.91.104-8.736.104-4.825 0-8.736-.046-8.736-.104 0-.057 3.911-.109 8.736-.109 4.826 0 8.736.047 8.736.109zM119.142 167.492c0 .057-3.91.104-8.736.104-4.825 0-8.736-.047-8.736-.104 0-.057 3.911-.109 8.736-.109 4.826 0 8.736.057 8.736.109zM119.142 171.454c0 .063-3.91.11-8.736.11-4.825 0-8.736-.047-8.736-.11 0-.062 3.911-.104 8.736-.104 4.826 0 8.736.047 8.736.104zM119.142 175.422c0 .062-3.91.109-8.736.109-4.825 0-8.736-.047-8.736-.109 0-.063 3.911-.104 8.736-.104 4.826 0 8.736.047 8.736.104z" fill="#E0E0E0"/><path d="M80.434 165.308H43.69v4.363h36.744v-4.363z" fill="#EBEBEB"/><path d="M118.96 180.06h-18.35v13.094h18.35V180.06z" fill="#FAFAFA"/><path d="M100.818 179.582H22.724v14.04h78.094v-14.04z" fill="#F5F5F5"/><path d="M100.246 180.534h19.723a.487.487 0 0 0 .335-.139.461.461 0 0 0 .138-.335.476.476 0 0 0-.473-.478h-19.723v.952zM100.246 192.676h19.978a.217.217 0 0 1 .218.218v.52a.217.217 0 0 1-.218.218h-19.978v-.956z" fill="#F5F5F5"/><path d="M118.961 182.546c0 .057-4.067.109-9.074.109-5.008 0-9.075-.052-9.075-.109s4.062-.109 9.075-.109c5.012 0 9.074.052 9.074.109zM118.961 185.021c0 .063-4.067.109-9.074.109-5.008 0-9.075-.046-9.075-.109 0-.062 4.062-.104 9.075-.104 5.012 0 9.074.047 9.074.104zM118.961 187.502c0 .057-4.067.104-9.074.104-5.008 0-9.075-.047-9.075-.104 0-.058 4.062-.11 9.075-.11 5.012 0 9.074.047 9.074.11zM118.961 189.977c0 .057-4.067.104-9.074.104-5.008 0-9.075-.047-9.075-.104 0-.057 4.062-.109 9.075-.109 5.012 0 9.074.046 9.074.109z" fill="#E0E0E0"/><path d="M121.743 194.875h-18.731v35.49h18.731v-35.49z" fill="#EBEBEB"/><path d="M103.012 193.627H15.096v38.48h87.916v-38.48z" fill="#E0E0E0"/><path d="M123.209 232.102H100.61v-2.496h22.599a1.252 1.252 0 0 1 1.153 1.726 1.243 1.243 0 0 1-.676.675 1.238 1.238 0 0 1-.477.095zM100.61 193.627h23.275a.57.57 0 0 1 .572.572v1.352a.571.571 0 0 1-.572.572H100.61v-2.496zM121.742 199.628c0 .062-4.191.109-9.36.109-5.168 0-9.36-.047-9.36-.109s4.192-.104 9.36-.104c5.169 0 9.36.047 9.36.104zM121.742 204.183c0 .057-4.191.104-9.36.104-5.168 0-9.36-.047-9.36-.104 0-.057 4.192-.109 9.36-.109 5.169 0 9.36.047 9.36.109zM121.742 208.733c0 .057-4.191.109-9.36.109-5.168 0-9.36-.052-9.36-.109s4.192-.109 9.36-.109c5.169 0 9.36.052 9.36.109zM121.742 213.283c0 .063-4.191.109-9.36.109-5.168 0-9.36-.046-9.36-.109 0-.062 4.192-.104 9.36-.104 5.169 0 9.36.047 9.36.104zM121.742 217.838c0 .058-4.191.104-9.36.104-5.168 0-9.36-.046-9.36-.104 0-.057 4.192-.109 9.36-.109 5.169 0 9.36.047 9.36.109zM121.742 222.389c0 .057-4.191.109-9.36.109-5.168 0-9.36-.052-9.36-.109 0-.058 4.192-.11 9.36-.11 5.169 0 9.36.052 9.36.11zM121.742 226.938c0 .063-4.191.11-9.36.11-5.168 0-9.36-.047-9.36-.11 0-.062 4.192-.104 9.36-.104 5.169 0 9.36.047 9.36.104z" fill="#E0E0E0"/><path d="M45.178 214.968v2.142c0 2.6-1.29 4.051-3.776 4.051-2.485 0-3.775-1.471-3.775-4.051v-8.377c0-2.6 1.29-4.056 3.775-4.056 2.486 0 3.776 1.477 3.776 4.056v1.56h-2.392v-1.721c0-1.154-.52-1.591-1.31-1.591-.791 0-1.316.437-1.316 1.591v8.7c0 1.154.52 1.56 1.315 1.56.796 0 1.31-.411 1.31-1.56v-2.304h2.393zM46.514 208.733c0-2.6 1.357-4.056 3.843-4.056 2.486 0 3.843 1.477 3.843 4.056v8.377c0 2.6-1.357 4.051-3.843 4.051-2.486 0-3.843-1.471-3.843-4.051v-8.377zm2.533 8.539c0 1.154.52 1.591 1.31 1.591s1.31-.437 1.31-1.591v-8.7c0-1.154-.52-1.591-1.31-1.591s-1.31.437-1.31 1.591v8.7zM55.833 204.88h2.532v13.811h4.16V221h-6.692v-16.12zM63.44 208.733c0-2.6 1.357-4.056 3.843-4.056 2.486 0 3.848 1.477 3.848 4.056v8.377c0 2.6-1.357 4.051-3.848 4.051-2.49 0-3.843-1.471-3.843-4.051v-8.377zm2.533 8.539c0 1.154.52 1.591 1.31 1.591s1.316-.437 1.316-1.591v-8.7c0-1.154-.52-1.591-1.316-1.591s-1.31.437-1.31 1.591v8.7zM75.171 204.88v12.433c0 1.149.52 1.56 1.31 1.56.791 0 1.311-.416 1.311-1.56V204.88h2.397v12.272c0 2.574-1.29 4.051-3.775 4.051-2.486 0-3.775-1.477-3.775-4.051V204.88h2.532zM87.21 221a4.882 4.882 0 0 1-.235-1.981v-2.533c0-1.497-.52-2.049-1.653-2.049h-.88V221H81.91v-16.12h3.822c2.6 0 3.755 1.222 3.755 3.707v1.264c0 1.659-.52 2.74-1.659 3.271 1.269.52 1.68 1.747 1.68 3.427v2.49c-.046.665.05 1.331.28 1.956L87.21 221zm-2.767-13.811v4.945h.993c.941 0 1.518-.411 1.518-1.701v-1.591c0-1.149-.39-1.653-1.29-1.653h-1.221z" fill="#EBEBEB"/><path d="M44.632 185.12h-1.846l.098-.478h4.238l-.104.478h-1.84l-.952 4.753h-.546l.952-4.753zM50.68 185.936l-2.871 4.441c-.489.749-.853.983-1.42.983a1.271 1.271 0 0 1-.936-.348l.281-.39a.937.937 0 0 0 .697.286c.338 0 .598-.162.905-.64l.275-.416-.977-3.91h.52l.832 3.338 2.147-3.349.546.005zM55.047 187.564a2.21 2.21 0 0 1-1.344 2.163 2.203 2.203 0 0 1-.881.177 1.478 1.478 0 0 1-1.498-.858l-.447 2.272h-.52l1.071-5.382h.52l-.125.629a1.986 1.986 0 0 1 1.56-.66 1.577 1.577 0 0 1 1.2.461 1.578 1.578 0 0 1 .464 1.198zm-.52.031a1.155 1.155 0 0 0-1.294-1.227 1.723 1.723 0 0 0-1.27.558 1.715 1.715 0 0 0-.441 1.314 1.142 1.142 0 0 0 .79 1.178c.163.052.335.067.505.044a1.713 1.713 0 0 0 1.612-1.169c.075-.224.104-.462.083-.698h.015zM55.666 188.24a2.233 2.233 0 0 1 2.272-2.335c1.092 0 1.79.645 1.79 1.659a2.235 2.235 0 0 1-2.273 2.34 1.615 1.615 0 0 1-1.789-1.664zm3.53-.645a1.155 1.155 0 0 0-1.294-1.227 1.726 1.726 0 0 0-1.25.556 1.741 1.741 0 0 0-.456 1.29 1.146 1.146 0 0 0 .792 1.176c.163.052.334.068.503.046a1.726 1.726 0 0 0 1.612-1.149 1.72 1.72 0 0 0 .094-.692zM64.813 185.936l-.687 3.453c-.275 1.394-1.008 1.966-2.288 1.966a2.506 2.506 0 0 1-1.747-.588l.312-.406c.406.36.936.546 1.477.52a1.568 1.568 0 0 0 1.527-.825c.096-.181.155-.379.174-.584l.093-.431a2.028 2.028 0 0 1-1.56.67c-1.04 0-1.737-.603-1.737-1.56a2.172 2.172 0 0 1 2.241-2.23 1.512 1.512 0 0 1 1.535.899l.166-.868.494-.016zm-.895 1.56c0-.717-.483-1.144-1.3-1.144a1.66 1.66 0 0 0-1.232.498 1.654 1.654 0 0 0-.478 1.239c0 .718.478 1.144 1.3 1.144a1.675 1.675 0 0 0 1.226-.492 1.663 1.663 0 0 0 .485-1.229v-.016zM68.281 185.905l-.098.52h-.146c-.837 0-1.399.479-1.596 1.456l-.396 1.997h-.52l.78-3.931h.52l-.16.733a1.788 1.788 0 0 1 1.616-.775zM72.8 185.936l-.785 3.932h-.52l.125-.619a2.008 2.008 0 0 1-1.53.655 1.587 1.587 0 0 1-1.715-1.664 2.216 2.216 0 0 1 2.22-2.335 1.48 1.48 0 0 1 1.498.853l.166-.822h.541zm-.884 1.659a1.155 1.155 0 0 0-1.295-1.227 1.723 1.723 0 0 0-1.248.557 1.716 1.716 0 0 0-.452 1.289 1.142 1.142 0 0 0 1.279 1.222 1.726 1.726 0 0 0 1.612-1.149 1.72 1.72 0 0 0 .094-.692h.01zM77.89 187.564a2.215 2.215 0 0 1-2.225 2.34 1.477 1.477 0 0 1-1.497-.858l-.448 2.272h-.52l1.066-5.382h.52l-.124.63a1.971 1.971 0 0 1 1.528-.661 1.59 1.59 0 0 1 1.591 1.003c.082.208.12.432.11.656zm-.52.031a1.155 1.155 0 0 0-1.294-1.227 1.713 1.713 0 0 0-1.633 1.167 1.72 1.72 0 0 0-.083.705 1.144 1.144 0 0 0 1.29 1.222 1.707 1.707 0 0 0 1.622-1.166c.076-.225.104-.464.083-.701h.016zM82.649 187.2c0 .15-.013.3-.042.447l-.447 2.236h-.52l.453-2.241c.02-.119.033-.239.036-.359 0-.561-.338-.884-1.04-.884a1.528 1.528 0 0 0-1.596 1.378l-.422 2.106h-.52l1.108-5.548h.52l-.442 2.205a1.923 1.923 0 0 1 1.503-.619c.92-.016 1.409.463 1.409 1.279zM87.62 185.936l-2.86 4.441c-.489.749-.853.978-1.42.978a1.271 1.271 0 0 1-.936-.349l.287-.39a.925.925 0 0 0 .691.286c.338 0 .598-.161.905-.639l.28-.416-.982-3.911h.52l.811 3.349 2.148-3.349h.556z" fill="#E0E0E0"/><path d="M99.466 24.33H19.703l13 9.36v18.445a3.848 3.848 0 0 0 3.853 3.853h62.92a3.854 3.854 0 0 0 3.853-3.853V28.184a3.858 3.858 0 0 0-1.132-2.728 3.854 3.854 0 0 0-2.731-1.125z" fill="#F5F5F5"/><path d="M96.138 37.367c0 .078-12.028.14-26.864.14-14.835 0-26.868-.067-26.868-.14 0-.073 12.028-.14 26.868-.14 14.841 0 26.864.062 26.864.14zM96.138 44.45c0 .078-12.028.14-26.864.14-14.835 0-26.868-.062-26.868-.14 0-.078 12.028-.14 26.868-.14 14.841 0 26.864.062 26.864.14z" fill="#E0E0E0"/><path d="M376.1 232.102c0 .078-81.556.135-182.13.135-100.573 0-182.15-.057-182.15-.135 0-.078 81.536-.135 182.15-.135 100.615 0 182.13.062 182.13.135z" fill="#263238"/><path d="M341.874 205.561s-13.785-15.86-18.985-31.72c-5.2-15.86-2.73-14.04-2.73-14.04s7.02 15.413 12.35 22.854c5.33 7.441 14.851 18.356 14.851 18.356l-5.486 4.55z" fill="#455A64"/><path d="M344.62 162.24a.8.8 0 0 0-.967-.374.8.8 0 0 0-.526.894c.837 5.574 2.657 18.652 2.6 27.134-.093 11.018 0 15.277 0 15.277h5.72s-1.04-22.776-2.314-29.723c-.905-4.857-2.813-10.265-4.513-13.208z" fill="#455A64"/><path d="M347.75 203.32a60.857 60.857 0 0 0 4.722-17.129c.473-4.056-.375-9.537-1.628-16.853a45.621 45.621 0 0 1-.723-8.107 1.367 1.367 0 0 1 2.569-.645c.692 1.238 2.699 5.46 3.208 8.102 1.389 7.223 2.959 10.837 1.758 17.68s-5.647 17.41-5.647 17.41l-4.259-.458zM352.914 203.793s15.137-32.526 16.187-37.351c1.051-4.826 4.613-15.944 5.034-15.314.421.629 1.04 6.505-1.68 13.218-2.719 6.713-14.373 40.435-14.373 40.435h-5.168" fill="#455A64"/><path d="M346.091 202.337a3.337 3.337 0 0 1-.426-.291c-.265-.203-.676-.489-1.17-.894a52.33 52.33 0 0 1-4.067-3.594 68.084 68.084 0 0 1-10.982-14.092 92.069 92.069 0 0 1-7.493-16.234 101.825 101.825 0 0 1-1.675-5.158c-.187-.609-.317-1.092-.405-1.415a2.714 2.714 0 0 1-.115-.52c.072.157.131.318.177.484l.463 1.399a144.8 144.8 0 0 0 1.768 5.116 98.577 98.577 0 0 0 7.561 16.152 70.968 70.968 0 0 0 10.873 14.107 58.065 58.065 0 0 0 3.983 3.64c.484.421.879.723 1.134.941.134.11.259.23.374.359zM347.745 186.732a5.76 5.76 0 0 1-.135-.952c-.073-.676-.167-1.56-.276-2.6a170.925 170.925 0 0 0-1.149-8.569 170.855 170.855 0 0 0-1.597-8.497c-.223-1.04-.41-1.903-.551-2.564a5.78 5.78 0 0 1-.171-.951c.123.298.221.606.291.92a66.3 66.3 0 0 1 .655 2.543c.52 2.153 1.154 5.153 1.69 8.497.536 3.343.874 6.385 1.04 8.595.094 1.108.151 2.002.177 2.6.043.325.051.652.026.978zM351.291 160.342c.072.133.131.272.177.416.12.307.27.707.458 1.206.187.5.426 1.17.65 1.94.223.77.52 1.622.733 2.6l.374 1.529c.13.52.219 1.097.333 1.674.25 1.155.4 2.408.582 3.723a55.472 55.472 0 0 1-.613 17.192c-.276 1.3-.52 2.537-.848 3.671-.156.567-.286 1.123-.452 1.643-.167.52-.328 1.04-.484 1.503-.291.962-.639 1.799-.92 2.543a29.741 29.741 0 0 1-.785 1.887l-.52 1.17c-.056.14-.126.274-.208.401.036-.147.086-.29.15-.427l.479-1.196c.218-.52.478-1.149.733-1.898.255-.749.598-1.591.874-2.553.145-.478.301-.978.462-1.498.162-.52.281-1.076.432-1.643.317-1.133.52-2.366.816-3.64a57.543 57.543 0 0 0 .614-17.103c-.177-1.31-.317-2.558-.551-3.707-.115-.577-.198-1.139-.317-1.669-.12-.531-.24-1.04-.354-1.529-.203-.978-.478-1.841-.686-2.6a32.66 32.66 0 0 0-.593-1.945c-.182-.53-.297-.915-.395-1.227a2.335 2.335 0 0 1-.141-.463zM373.958 151.783a.393.393 0 0 1 0 .145c0 .115-.042.255-.068.422-.067.369-.15.92-.296 1.622a58.998 58.998 0 0 1-1.56 5.855 145.358 145.358 0 0 1-3.011 8.455c-1.227 3.152-2.641 6.578-3.983 10.229-1.342 3.65-2.418 7.207-3.406 10.431-.988 3.224-1.903 6.136-2.803 8.528a54.812 54.812 0 0 1-2.387 5.564c-.312.645-.592 1.123-.769 1.456l-.213.369a.508.508 0 0 1-.084.125.62.62 0 0 1 .052-.14l.188-.385c.161-.343.421-.832.712-1.482a62.63 62.63 0 0 0 2.288-5.585c.858-2.402 1.768-5.299 2.735-8.533.967-3.235 2.013-6.802 3.38-10.457 1.368-3.656 2.777-7.088 4.015-10.229 1.237-3.141 2.293-5.99 3.068-8.419a79.864 79.864 0 0 0 1.632-5.813c.167-.692.271-1.238.359-1.602.042-.166.073-.301.099-.416a.473.473 0 0 1 .052-.14z" fill="#263238"/><path d="M327.293 144.596a1.307 1.307 0 0 0-2.124.488 1.305 1.305 0 0 0-.023.844 37.095 37.095 0 0 0 1.903 4.888c2.08 4.425 8.195 20.28 11.055 29 2.86 8.72 6.89 24.96 6.89 24.96l6.11-.988s-5.59-26.702-11.024-36.348c-4.415-7.712-8.804-18.881-12.787-22.844z" fill="#455A64"/><path d="M339.773 185.266c.133.231.24.477.317.733.182.478.427 1.175.702 2.049.562 1.742 1.254 4.16 1.945 6.879.692 2.72 1.269 5.169 1.669 6.953.188.842.338 1.56.463 2.116.067.257.109.52.125.785a3.768 3.768 0 0 1-.25-.754c-.145-.556-.332-1.258-.556-2.08L342.425 195a253.897 253.897 0 0 0-1.851-6.895l-.603-2.08a3.98 3.98 0 0 1-.198-.759zM348.062 204.287a.728.728 0 0 1-.031-.161c0-.13-.042-.286-.073-.484-.062-.421-.119-1.04-.249-1.851-.224-1.601-.624-3.915-1.28-6.734a97.355 97.355 0 0 0-2.86-9.76c-1.253-3.64-2.823-7.53-4.607-11.581-3.593-8.086-7.181-15.256-9.542-20.555-1.191-2.647-2.116-4.805-2.725-6.313-.312-.749-.52-1.336-.686-1.737-.068-.187-.125-.333-.172-.457a.608.608 0 0 1-.046-.156s.031.046.078.145c.046.099.119.265.202.442l.739 1.716c.645 1.487 1.601 3.64 2.818 6.24 2.408 5.278 6.032 12.428 9.631 20.525 1.783 4.056 3.348 7.976 4.591 11.611a93.03 93.03 0 0 1 2.803 9.823c.506 2.232.9 4.488 1.18 6.76.11.806.146 1.435.193 1.862 0 .197.026.353.036.483a.693.693 0 0 1 0 .182zM351.104 203.793a7.065 7.065 0 0 1-.208-1.04l-.473-2.808c-.421-2.366-1.04-5.626-1.987-9.173a129.837 129.837 0 0 0-2.74-8.98l-.936-2.673a6.144 6.144 0 0 1-.322-.998c.171.305.319.623.441.951.26.619.63 1.524 1.04 2.652a88.44 88.44 0 0 1 2.84 8.976 93.933 93.933 0 0 1 1.898 9.219c.177 1.191.306 2.158.374 2.829.051.346.075.696.073 1.045z" fill="#263238"/><path d="M363.641 202.915h-23.847v29.052h23.847v-29.052z" fill="#1F81B0"/><path d="M363.641 202.915h-23.847v29.052h23.847v-29.052z" fill="#000" opacity=".3"/><path d="M356.033 202.915H334.88v29.052h21.153v-29.052z" fill="#1F81B0"/><path d="M46.035 192.816c-4.066-2.6-9.692-2.652-13.644.109-3.755 2.626-5.663 7.4-5.497 11.96.167 4.561 2.387 10.166 6.532 12.574l12.167-.052a16.338 16.338 0 0 0 6.698-12.277c.182-4.805-2.194-9.714-6.255-12.314z" fill="#455A64"/><path d="M40.04 217.916a5.48 5.48 0 0 1-.073-1.04c0-.748-.052-1.705-.083-2.854-.063-2.408-.156-5.72-.317-9.407a414.809 414.809 0 0 0-.52-9.407c-.068-1.144-.125-2.08-.172-2.85a5.426 5.426 0 0 1 0-1.04c.087.341.143.689.166 1.04.084.671.183 1.644.297 2.845.218 2.402.457 5.72.624 9.407.166 3.686.213 7.014.203 9.427 0 1.207 0 2.179-.042 2.855.003.343-.025.686-.083 1.024zM28.122 203.866c0 .104-.671.141-1.477.073-.806-.068-1.451-.208-1.446-.312.005-.104.671-.14 1.477-.078.806.062 1.456.208 1.446.317zM28.35 199.758c-.046.099-.613-.057-1.274-.353-.66-.297-1.16-.609-1.117-.708.041-.098.613.063 1.274.354.66.291 1.16.629 1.117.707zM30.462 196.711c-.058.088-.697-.213-1.363-.765-.666-.551-1.087-1.128-1.009-1.196.078-.067.609.359 1.253.895.645.535 1.176.972 1.119 1.066zM32.588 193.835c-.099.042-.405-.436-.686-1.071-.28-.634-.432-1.186-.333-1.232.099-.047.406.436.686 1.076.281.64.427 1.186.333 1.227zM35.922 191.797c-.1.041-.427-.468-.65-1.175-.224-.708-.24-1.321-.136-1.337.104-.015.297.52.52 1.217.224.697.364 1.248.266 1.295zM41.48 189.493c.104.037.042.473-.135.978-.177.504-.405.879-.52.842-.114-.036-.042-.468.135-.972.177-.505.422-.884.52-.848zM45.61 191.266c.072.078-.193.442-.594.812-.4.369-.78.603-.852.52-.073-.084.192-.442.587-.812.395-.369.785-.598.858-.52zM49.239 193.612c.062.088-.26.41-.718.722-.458.312-.879.489-.941.401-.063-.089.265-.411.723-.723.457-.312.879-.489.936-.4zM51.818 197.106c.041.099-.463.411-1.134.697-.67.286-1.248.437-1.29.338-.04-.099.469-.411 1.14-.692.67-.28 1.242-.442 1.284-.343zM52.837 200.923c0 .104-.52.26-1.16.338-.639.078-1.185.062-1.2-.047-.016-.109.52-.255 1.154-.338.634-.083 1.19-.062 1.206.047zM53.362 205.618c-.041.099-.593-.046-1.227-.322-.634-.276-1.123-.582-1.081-.681.041-.099.597.047 1.232.322.634.276 1.123.583 1.076.681zM52.9 209.648c-.037.099-.733-.067-1.462-.546-.727-.478-1.16-1.04-1.086-1.118.073-.078.608.344 1.3.791.691.447 1.284.785 1.248.873zM50.799 213.314c-.063.084-.62-.239-1.15-.816-.53-.577-.816-1.149-.733-1.212.084-.062.52.401 1.04.947.52.546.915.998.843 1.081zM30.883 213.746c.047.094-.52.52-1.305.894-.786.375-1.43.64-1.498.557-.068-.083.52-.52 1.3-.9.78-.379 1.45-.645 1.503-.551zM29.063 210.429c.041.098-.427.405-1.04.686-.614.281-1.16.432-1.207.333-.046-.099.427-.406 1.04-.687.614-.28 1.16-.431 1.207-.332zM27.726 207.48c0 .104-.561.276-1.29.38-.727.104-1.32.098-1.336 0-.015-.099.562-.276 1.285-.375.723-.099 1.326-.104 1.341-.005zM32.11 205.868c.031.104-.52.364-1.274.447-.754.084-1.357-.046-1.347-.15.01-.104.593-.151 1.3-.234.707-.084 1.29-.167 1.32-.063zM35.755 202.244c.031.098-.416.327-1.04.384-.624.058-1.081-.072-1.071-.176.01-.104.478-.151 1.04-.208.562-.058 1.04-.104 1.071 0zM36.452 199.337c-.036.104-.52.026-1.081-.167-.562-.192-.989-.431-.952-.52.036-.088.52-.026 1.082.172.561.198.988.416.951.515zM37.788 196.399c-.072.078-.405-.141-.644-.557-.24-.416-.26-.806-.156-.832.104-.026.28.276.52.64.239.364.358.676.28.749zM36.176 208.426c.026.104-.39.297-.936.432-.256.068-.52.106-.785.114l-.073-.228c.14 0 .23 0 .25.026.02.026-.042.109-.156.197l-.078-.229c.241-.114.494-.201.754-.26.54-.13.998-.156 1.024-.052zM36.92 213.58c.036.098-.52.4-1.196.676-.676.275-1.295.416-1.331.317-.037-.099.52-.406 1.19-.676.671-.271 1.306-.416 1.337-.317zM32.812 211.292c.036.098-.322.312-.796.473-.473.161-.884.213-.92.109-.036-.104.322-.312.796-.473.473-.161.868-.213.92-.109zM33.124 200.808c0 .104-.645.042-1.357-.213-.713-.255-1.238-.598-1.191-.691.047-.094.624.078 1.32.322.697.244 1.254.494 1.228.582zM43.087 199.68c.063.088-.286.421-.775.744-.488.322-.936.52-.998.421-.062-.099.291-.421.78-.744.489-.322.936-.525.993-.421zM43.633 204.839c0 .104-.348.27-.822.369-.473.099-.873.093-.9 0-.025-.094.35-.271.822-.369.474-.099.874-.104.9 0zM44.262 210.657c-.046.094-.577-.052-1.18-.333-.603-.28-1.04-.587-1.04-.686 0-.099.577.052 1.18.333.604.281 1.082.587 1.04.686zM42.926 216.32c-.083.073-.426-.208-.764-.624-.338-.416-.52-.806-.463-.873.057-.068.421.213.764.629.343.416.546.795.463.868zM42.64 195.858c.068.083-.161.369-.551.562-.39.192-.75.208-.775.104-.026-.104.255-.271.603-.448.349-.176.67-.301.723-.218zM47.538 201.074c.037.098-.416.348-1.04.436-.624.089-1.118-.031-1.112-.135.005-.104.483-.171 1.04-.249.556-.078 1.076-.151 1.112-.052zM46.566 196.394c.047.093-.4.416-1.04.618-.64.203-1.186.203-1.201.099-.016-.104.478-.275 1.081-.473.604-.198 1.108-.343 1.16-.244zM48.605 208.328c0 .104-.77.171-1.696 0-.925-.172-1.617-.52-1.56-.598.058-.078.765.057 1.654.213.89.156 1.602.275 1.602.385zM46.8 215.129c-.062.083-.63-.249-1.19-.816-.562-.567-.89-1.113-.822-1.196.067-.083.52.374 1.086.925.567.552.983 1.004.926 1.087z" fill="#263238"/><path d="M38.813 190.84a17.677 17.677 0 0 0-3.406 2.694 16.638 16.638 0 0 0-4.243 9.36 21.214 21.214 0 0 0 .255 5.746 45.53 45.53 0 0 0 1.076 4.612c.374 1.295.718 2.335.946 3.058.139.369.248.748.328 1.133a6.11 6.11 0 0 1-.468-1.081 46.871 46.871 0 0 1-1.066-3.032 38.322 38.322 0 0 1-1.165-4.628 20.454 20.454 0 0 1-.291-5.85 16.363 16.363 0 0 1 4.43-9.526 12.025 12.025 0 0 1 2.538-1.966c.25-.153.511-.288.78-.406.09-.05.186-.089.286-.114z" fill="#263238"/><path d="M44.112 217.724c-.089-.047.868-1.518 1.742-4.16a23.604 23.604 0 0 0 1.04-10.728c-.262-1.99-.82-3.93-1.654-5.756a13.635 13.635 0 0 0-2.818-3.931 10.442 10.442 0 0 0-2.767-1.747c-.717-.297-1.149-.37-1.144-.401.105-.016.212-.016.317 0 .3.054.593.132.88.234a9.557 9.557 0 0 1 2.89 1.685 13.257 13.257 0 0 1 2.965 3.978 19.86 19.86 0 0 1 1.715 5.824 22.817 22.817 0 0 1-1.17 10.873c-.218.671-.52 1.243-.712 1.763-.192.52-.458.936-.645 1.279-.185.378-.399.741-.64 1.087z" fill="#263238"/><path d="M29.063 216.804h21.413l.13 4.285H29.063v-4.285z" fill="#1F81B0"/><path d="m30.883 218.946 1.227 13.083h15.657l1.259-12.937-18.143-.146z" fill="#1F81B0"/><path d="M50.606 221.14c0 .11-4.82.193-10.769.193s-10.769-.083-10.769-.193c0-.109 4.82-.192 10.77-.192 5.948 0 10.768.083 10.768.192zM48.433 225.124a3.23 3.23 0 0 1-.458.821 12.029 12.029 0 0 1-1.664 1.961l-.099.093-.093-.104a30.805 30.805 0 0 0-4.202-3.671h.24l-1.862 1.633-2.2 1.903-.12.109-.124-.104-3.573-3.005.208-.026c-.738.905-1.362 1.659-1.85 2.262a4.934 4.934 0 0 1-.729.79c.172-.316.372-.615.598-.894l1.747-2.335.094-.12.12.094 3.64 2.943h-.24l2.19-1.924 1.866-1.627.115-.099.125.088a27.481 27.481 0 0 1 4.16 3.791h-.198a20.968 20.968 0 0 0 2.309-2.579z" fill="#263238"/><path d="M305.734 68.52H79.056a7.576 7.576 0 0 0-7.577 7.577v144.768a7.576 7.576 0 0 0 7.577 7.576h226.678a7.576 7.576 0 0 0 7.576-7.576V76.097a7.576 7.576 0 0 0-7.576-7.577z" fill="#455A64"/><path d="M63.565 218.109h262.002v4.737a9.255 9.255 0 0 1-9.256 9.256H72.8a9.255 9.255 0 0 1-9.256-9.256v-4.737h.02z" fill="#455A64"/><path d="m168.558 216.611 3.25 5.174h45.749l3.016-5.174h-52.015z" fill="#263238"/><path d="M311.23 216.611c0 .088-53.674.156-119.865.156s-119.886-.068-119.886-.156 53.664-.156 119.886-.156 119.865.068 119.865.156z" fill="#263238"/><path d="M303.737 77.714H80.106a1.7 1.7 0 0 0-1.7 1.7v131.269c0 .939.76 1.701 1.7 1.701h223.631c.939 0 1.701-.762 1.701-1.701V79.414c0-.939-.762-1.7-1.701-1.7z" fill="#EBEBEB"/><path d="M305.193 212.581H78.161l.245-124.8h226.787v124.8z" fill="#fff"/><path d="M97.027 82.92a1.815 1.815 0 1 1-3.63.03 1.815 1.815 0 0 1 3.63-.03zM86.04 82.92a1.815 1.815 0 1 1-3.63.03 1.815 1.815 0 0 1 3.63-.03zM91.312 82.92a1.815 1.815 0 1 1-3.63-.001 1.815 1.815 0 0 1 3.63 0zM305.438 200.528H78.161v12.053h227.277v-12.053z" fill="#263238"/><path d="M86.752 207.948v.385h-1.81v-.302l.973-.925c.239-.229.28-.375.28-.52 0-.224-.156-.354-.457-.354a.69.69 0 0 0-.572.255l-.323-.245a1.142 1.142 0 0 1 .936-.405c.52 0 .88.265.88.702a.981.981 0 0 1-.412.775l-.655.624 1.16.01zM86.996 206.731a.29.29 0 0 1 .181-.269.288.288 0 0 1 .318.065.29.29 0 0 1-.213.495.28.28 0 0 1-.267-.179.283.283 0 0 1-.019-.112zm0 1.336a.287.287 0 0 1 .07-.23.29.29 0 0 1 .438 0 .288.288 0 0 1 .07.23.29.29 0 0 1-.169.304.28.28 0 0 1-.24 0 .29.29 0 0 1-.169-.304zM88.712 205.878v2.455h-.453v-2.08h-.52v-.385l.973.01zM91.39 207.776h-.437v.557h-.442v-.557h-1.347v-.296l1.212-1.56h.489l-1.144 1.513h.806v-.494h.426v.494h.437v.343zM281.684 206.793H95.399v.848h186.285v-.848z" fill="#fff"/><path d="M153.473 205.884H95.259v2.267h58.214v-2.267z" fill="#1F81B0"/><path d="M155.355 207.22a2.834 2.834 0 1 1-5.668.001 2.834 2.834 0 0 1 5.668-.001z" fill="#1F81B0"/><path d="M286.374 207.194a.823.823 0 0 1-.269.6.822.822 0 0 1-.625.206c-.671 0-1.04-.432-1.04-1.222a1.156 1.156 0 0 1 .301-.932 1.155 1.155 0 0 1 .905-.373c.226-.006.449.05.645.161l-.171.343a.811.811 0 0 0-.463-.119c-.463 0-.754.286-.754.842a.828.828 0 0 1 .655-.255.772.772 0 0 1 .569.199.772.772 0 0 1 .247.55zm-.442 0c0-.255-.192-.416-.488-.416a.458.458 0 0 0-.355.094.442.442 0 0 0-.165.327c0 .229.182.411.52.411a.43.43 0 0 0 .333-.088.419.419 0 0 0 .155-.307v-.021zM286.598 206.351a.295.295 0 0 1 .069-.23.296.296 0 0 1 .22-.1.28.28 0 0 1 .12.027.287.287 0 0 1 .168.303.283.283 0 0 1-.01.123.278.278 0 0 1-.158.181.28.28 0 0 1-.241 0 .292.292 0 0 1-.168-.304zm0 1.337a.301.301 0 0 1 .069-.231.296.296 0 0 1 .22-.099.295.295 0 0 1 .219.099.286.286 0 0 1 .059.108c.012.04.016.082.01.123a.285.285 0 0 1-.069.23.295.295 0 0 1-.34.074.286.286 0 0 1-.158-.181.301.301 0 0 1-.01-.123zM287.466 206.726c0-.806.442-1.264 1.04-1.264.598 0 1.04.458 1.04 1.264s-.442 1.264-1.04 1.264c-.598 0-1.04-.458-1.04-1.264zm1.592 0c0-.593-.229-.863-.567-.863-.338 0-.567.27-.567.863s.234.868.567.868c.332 0 .567-.275.567-.868zM289.822 206.726c0-.806.442-1.264 1.04-1.264.598 0 1.04.458 1.04 1.264s-.442 1.264-1.04 1.264c-.598 0-1.04-.458-1.04-1.264zm1.596 0c0-.593-.234-.863-.572-.863-.338 0-.561.27-.561.863s.229.868.561.868c.333 0 .572-.275.572-.868zM295.844 206.575h-.853v-2.449h2.449v.848h-1.596v1.601zM297.44 209.768h-2.449v-2.444h.847v1.596h1.602v.848zM301.34 209.768h-2.444v-.848h1.591v-1.601h.853v2.449zM301.34 206.57h-.848v-1.596h-1.601v-.848h2.449v2.444z" fill="#fff"/><path d="M109.299 95.201H95.914l-6.687 11.591 6.687 11.586h13.385l6.687-11.586-6.687-11.59z" fill="#EBEBEB"/><path d="M97.006 109.06a11.792 11.792 0 0 1-1.633-2.112 4.038 4.038 0 0 1-.556-2.568c.14-.502.253-1.01.338-1.524.052-.718-.25-1.466 0-2.137.395-1.04 1.804-1.212 2.662-1.935.666-.566.993-1.482 1.727-1.955a3.25 3.25 0 0 1 2.22-.301 8.189 8.189 0 0 0 2.272.197 15.33 15.33 0 0 0 1.56-.421 2.137 2.137 0 0 1 1.56.11 1.042 1.042 0 0 1 .427 1.388c.878-.406 1.991.28 2.23 1.211a2.593 2.593 0 0 1-.982 2.564 5.719 5.719 0 0 1-2.652 1.081c-2.689.52-5.601.224-7.915-1.232" fill="#263238"/><path d="M109.413 111.92c-.088-1.659-.551-5.06-1.009-8.133a6.416 6.416 0 0 0-6.76-5.46h-.333c-3.556.447-5.163 3.718-4.617 7.28l1.04 12.766h8.684s-.208-2.241-.208-2.262c0-.021 3.39-.759 3.203-4.191z" fill="#FFBE9D"/><path d="M106.205 116.069a8.05 8.05 0 0 1-4.561-.972s1.227 2.397 4.628 1.861l-.067-.889z" fill="#EB996E"/><path d="M107.297 106.73a.485.485 0 0 1-.437.52.465.465 0 0 1-.464-.232.468.468 0 0 1-.056-.174.49.49 0 0 1 .782-.426.468.468 0 0 1 .175.312zM107.78 105.513c-.057.068-.447-.182-.977-.145-.531.036-.895.327-.957.265-.062-.063 0-.146.187-.281a1.36 1.36 0 0 1 .759-.291c.275-.02.548.049.78.197.172.115.234.224.208.255zM102.315 107.089a.522.522 0 0 1-.437.52.476.476 0 0 1-.52-.411.522.522 0 0 1 .437-.52.474.474 0 0 1 .52.411zM102.601 105.96c-.057.068-.447-.182-.977-.145-.531.036-.895.322-.957.265-.063-.057 0-.146.187-.281a1.355 1.355 0 0 1 1.56-.099c.151.115.213.229.187.26zM104.775 109.72a3.44 3.44 0 0 1 .847-.213c.136 0 .26-.057.276-.151a.69.69 0 0 0-.114-.39l-.468-.998a18.138 18.138 0 0 1-1.077-2.6c.496.808.926 1.654 1.285 2.532.156.348.306.686.452 1.004a.827.827 0 0 1 .104.52.354.354 0 0 1-.208.213c-.074.024-.151.04-.229.047a3.409 3.409 0 0 1-.868.036zM102.596 103.88c-.042.146-.572.115-1.186.234-.613.12-1.102.318-1.196.193-.093-.125.042-.198.234-.354.256-.19.554-.317.869-.369.312-.062.636-.046.941.047.234.078.359.182.338.249zM107.484 104c-.088.125-.458.026-.894.047-.437.021-.801.135-.895 0-.093-.135 0-.182.161-.307.206-.154.456-.24.713-.244.256-.012.51.055.728.192.161.13.223.25.187.312z" fill="#263238"/><path d="M97.136 108.16c-.062 0-2.407-.52-2.173 1.804.234 2.325 2.771 1.56 2.766 1.508-.005-.052-.593-3.312-.593-3.312z" fill="#FFBE9D"/><path d="M96.689 110.682s-.037.031-.099.068a.415.415 0 0 1-.307.036 1.003 1.003 0 0 1-.556-.858 1.303 1.303 0 0 1 .057-.593.47.47 0 0 1 .276-.348.215.215 0 0 1 .25.088c.04.063.03.115.04.115.011 0 .048-.042 0-.141a.264.264 0 0 0-.216-.178.29.29 0 0 0-.121.007.58.58 0 0 0-.39.405 1.395 1.395 0 0 0-.073.666 1.04 1.04 0 0 0 .692.951.454.454 0 0 0 .37-.098c.108-.042.108-.12.077-.12z" fill="#EB996E"/><path d="M108.233 100.578c-.161.931-2.054 1.789-3.64 1.742-1.446-.041-2.163-.759-3.209-1.268-.665-.323-.665-.323-1.56-.177-.728.119-1.107.977-1.513 1.596.78 1.701.463 3.677.13 5.517a.916.916 0 0 1-.234.557.749.749 0 0 1-.952-.141 2.92 2.92 0 0 1-.738-1.487 9.716 9.716 0 0 1-.229-3.811 6.568 6.568 0 0 1 1.56-3.438 6.24 6.24 0 0 1 4.259-1.94 7.672 7.672 0 0 1 4.54 1.285 4.58 4.58 0 0 1 1.56 1.56" fill="#263238"/><path d="m105.123 110.926-1.196-.556a.396.396 0 0 0-.218-.052.33.33 0 0 0-.203.14 1.107 1.107 0 0 0-.135 1.217.926.926 0 0 0 1.123.411 1.275 1.275 0 0 0 .66-1.123l-.031-.037z" fill="#EB996E"/><path d="M104.52 112.174s-.25.193-.702.063a1.115 1.115 0 0 1-.619-.52 1.133 1.133 0 0 1-.149-.48c-.014-.169.01-.339.071-.498.064-.165.163-.314.291-.437.062-.057.13-.107.203-.15a.328.328 0 0 1 .312 0c.276.15.458.28.64.395.348.234.556.395.52.426-.037.031-.26-.067-.635-.26l-.639-.333h-.094a1.05 1.05 0 0 0-.145.12.908.908 0 0 0-.219.343.94.94 0 0 0 .042.759.966.966 0 0 0 .468.442c.39.167.655.084.655.13zM104.151 106.787s0-.213-.125-.582a2.45 2.45 0 0 0-.9-1.285 2.33 2.33 0 1 0 0 3.739c.433-.317.749-.769.9-1.284.104-.369.099-.588.125-.588.026 0 0 .057 0 .161a1.86 1.86 0 0 1-.047.453 2.41 2.41 0 0 1-.879 1.409 2.546 2.546 0 0 1-3.648-.542 2.563 2.563 0 0 1 1.235-3.894 2.558 2.558 0 0 1 2.413.396c.451.351.762.85.879 1.409.034.148.05.3.047.452.015.104.01.156 0 .156zM109.99 106.558c-.026 0 0-.208-.124-.566a2.366 2.366 0 0 0-.874-1.248 2.262 2.262 0 0 0-2.371-.206 2.272 2.272 0 0 0-1.248 2.026 2.268 2.268 0 0 0 3.619 1.82c.421-.309.728-.748.874-1.248.104-.359.098-.572.124-.572.026 0 0 .052 0 .156.003.148-.011.296-.041.442a2.368 2.368 0 0 1-.858 1.372 2.486 2.486 0 0 1-4.016-1.97c0-.516.159-1.02.457-1.441a2.486 2.486 0 0 1 3.559-.53c.438.344.742.832.858 1.378.031.145.045.293.041.442.016.093.011.145 0 .145z" fill="#263238"/><path d="M105.227 106.023c-.052.047-.286-.104-.598-.094-.312.011-.52.161-.593.115-.073-.047.146-.375.588-.385.442-.011.671.322.603.364zM99.408 106.444c.047.057-.41.473-1.014.926-.34.311-.74.551-1.175.707-.047-.057.41-.473 1.014-.926.34-.312.74-.553 1.175-.707zM147.68 106.673c0 .073-6.016.135-13.437.135-7.42 0-13.437-.062-13.437-.135 0-.073 6.017-.135 13.437-.135 7.421 0 13.437.062 13.437.135zM135.247 109.486c0 .073-3.193.135-7.135.135-3.941 0-7.134-.062-7.134-.135 0-.073 3.193-.14 7.134-.14 3.942 0 7.135.062 7.135.14z" fill="#263238"/><path d="M228.171 127.447a20.489 20.489 0 0 1 6.076 5.273 20.494 20.494 0 0 1 3.575 7.207c2.512 8.985 10.192 32.385 10.192 32.385s4.389 5.164 4.857 8.986c.468 3.822-.468 13.073-1.883 14.799a3.96 3.96 0 0 1-3.421 1.441l-18.476-1.753-7.28-48.713 6.36-19.625z" fill="#1F81B0"/><path d="M167.081 126.599s-13.213 4.16-16.505 7.748l10.816 50.315-.192 15.881h62.65c0-.785.561-52.717.561-52.717l3.76-20.379-22.251-3.916-4.389-3.453-24.767 1.259-3.765 3.759-5.918 1.503z" fill="#1F81B0"/><path d="M172.12 170.253c-.192-.426-.473-.889-.931-.983-.754-.156-1.258.734-1.513 1.462a66.3 66.3 0 0 1-8.226 16.062l-.161 7.728c3.64-3.074 7.248-6.365 9.578-10.53 2.33-4.166 3.198-9.392 1.253-13.739z" fill="#000" opacity=".3"/><path d="M150.577 134.347s-4.353 5.933-6.157 9.807c-1.805 3.874-16.786 36.4-17.68 39.765-.895 3.364-3.224 13.941 3.614 16.395h14.076l14.123-28.563.723-33.15-8.699-4.254z" fill="#1F81B0"/><path d="M145.319 179.681s-.312-.276-.962-.645a10.898 10.898 0 0 0-2.953-1.071 14.213 14.213 0 0 0-2.153-.302 8.577 8.577 0 0 0-2.491.177 9.192 9.192 0 0 0-4.737 2.974 12.92 12.92 0 0 0-2.683 4.987 24.888 24.888 0 0 0-.843 4.602c-.135 1.331-.182 2.418-.228 3.162 0 .353-.042.639-.052.863 0 .102-.014.203-.042.302a2.174 2.174 0 0 1 0-.302v-.863c0-.754.031-1.836.14-3.177.11-1.583.377-3.151.796-4.68a12.94 12.94 0 0 1 2.72-5.096 9.357 9.357 0 0 1 4.888-3.037 8.508 8.508 0 0 1 2.537-.141c.734.054 1.463.167 2.179.338 1.042.232 2.043.625 2.964 1.165.248.154.483.327.702.52.08.067.154.142.218.224zM138.648 173.992a1.85 1.85 0 0 1 .473-.073 8.36 8.36 0 0 1 1.305 0c.647.038 1.289.134 1.919.286a11.44 11.44 0 0 1 4.269 2.039c.516.392.994.831 1.43 1.31.296.325.565.673.806 1.04.098.127.179.267.239.416-.041.031-.426-.52-1.185-1.31-.449-.45-.93-.865-1.441-1.243a12.923 12.923 0 0 0-1.996-1.196 13.675 13.675 0 0 0-2.185-.801c-.614-.158-1.24-.27-1.872-.333-1.081-.14-1.762-.083-1.762-.135zM151.367 172.427a2.889 2.889 0 0 1-.65-.047 38.895 38.895 0 0 0-1.763-.172 30.114 30.114 0 0 0-11.507 1.378c-.713.229-1.285.432-1.675.583a3.273 3.273 0 0 1-.619.203c.179-.125.373-.226.578-.302a18.93 18.93 0 0 1 1.653-.666 26.577 26.577 0 0 1 11.591-1.383c.744.078 1.347.167 1.758.255.215.03.428.08.634.151zM191.454 144.633a.775.775 0 0 1-.146-.172l-.385-.52-1.414-1.955a4468.631 4468.631 0 0 0-4.899-6.916l.219-.031c-.759 2.225-1.597 4.68-2.475 7.28l-.058.161-.145-.094-.291-.187a14.97 14.97 0 0 1-3.063-2.6 18.179 18.179 0 0 1-2.189-3.026 25.528 25.528 0 0 1-2.408-5.809 40.411 40.411 0 0 1-.91-4.16c-.083-.468-.146-.847-.198-1.133a1.747 1.747 0 0 0-.067-.286c0-.063-.037-.094-.031-.099.005-.005.213.52.4 1.503.187.983.484 2.397.993 4.108a25.693 25.693 0 0 0 2.439 5.751 18.61 18.61 0 0 0 2.168 2.974A14.75 14.75 0 0 0 182 141.96l.286.187-.198.073c.89-2.6 1.732-5.039 2.502-7.28l.078-.229.14.198c1.955 2.834 3.64 5.247 4.82 6.973.567.842 1.04 1.513 1.358 2.002l.348.52c.048.072.088.149.12.229z" fill="#263238"/><path d="M207.756 168.652a28.5 28.5 0 0 0 3.64 16.879c2.912 5.065 7.186 9.583 12.506 12.007.171-5.164-.078-11.248.093-16.412l-16.239-12.474z" fill="#000" opacity=".3"/><path d="M207.168 161.855s-2.278.629-.572 5.294c1.706 4.664 2.278 4.378 3.416 8.736 1.139 4.357 2.465 8.32 4.452 10.805 1.986 2.486 9.386 7.488 9.386 7.488l6.635-6.24s-1.092-4.68-.832-7.831c.26-3.151.925-10.92.832-12.267-.094-1.346-1.519-4.55-1.519-4.55v-2.204l-3.411-10.494s-1.898-.853-2.558 2.179l-1.139-3.219s-1.799-.286-2.272 3.411c-.474 3.697.379 8.814.379 8.814l-.951 6.443-1.42 4.363-1.232.187s-1.857-.52-2.871-3.999-3.765-7.675-6.323-6.916z" fill="#FFBE9D"/><path d="M228.28 178.36s0-.078-.031-.234c-.031-.156-.031-.411-.047-.697-.036-.634-.083-1.513-.14-2.6-.104-2.262-.245-5.413-.411-9.089l.026.078a1.338 1.338 0 0 0-1.342-.354 1.976 1.976 0 0 0-1.227.905c-.582.931-.613 2.147-.795 3.317-.359 2.658-.702 5.2-1.014 7.494-.156 1.154-.323 2.246-.546 3.26a20.64 20.64 0 0 1-.827 2.766c-.291.827-.551 1.56-.713 2.252A7.054 7.054 0 0 0 221 187.2c.019.505.106 1.006.26 1.487a2.346 2.346 0 0 1-.156-.364 3.939 3.939 0 0 1-.208-1.118 6.605 6.605 0 0 1 .172-1.794c.182-.772.41-1.532.681-2.277.321-.899.582-1.818.78-2.751.213-1.004.374-2.08.52-3.245.302-2.309.64-4.836.993-7.498.083-.588.146-1.176.25-1.758a4.635 4.635 0 0 1 .582-1.669 2.231 2.231 0 0 1 1.399-1.009 1.565 1.565 0 0 1 1.596.437l.026.036v.042c.13 3.676.24 6.827.318 9.095 0 1.097.046 1.976.067 2.6v.696a1.16 1.16 0 0 1 0 .25z" fill="#EB996E"/><path d="M224.64 166.4a2.598 2.598 0 0 1-.281-.593 15.76 15.76 0 0 1-.556-1.695 17.504 17.504 0 0 1-.473-2.6 7.603 7.603 0 0 1-.032-1.56c.049-.581.246-1.14.572-1.622a2.338 2.338 0 0 1 1.217-.916l.099-.026.052.089a268.039 268.039 0 0 1 2.382 4.269l.681 1.274c.093.149.167.31.218.478a2.38 2.38 0 0 1-.301-.431l-.749-1.233a254.534 254.534 0 0 1-2.46-4.222l.151.062c-.435.146-.81.431-1.066.812a3.129 3.129 0 0 0-.52 1.497 7.513 7.513 0 0 0 0 1.529c.078.875.216 1.744.411 2.6.166.728.348 1.31.468 1.711.081.186.144.379.187.577z" fill="#EB996E"/><path d="M223.049 167.253a2.447 2.447 0 0 1-.062-.609c0-.447-.042-.998-.068-1.648a312.348 312.348 0 0 1-.114-5.444c-.078-1.819-.05-3.64.083-5.455a8.592 8.592 0 0 1 .353-1.623c.051-.199.133-.388.245-.561a15.289 15.289 0 0 0-.411 2.205c-.13 1.378 0 3.302 0 5.428 0 2.127.042 4.051.036 5.445v1.653c.002.205-.019.409-.062.609zM217.438 184.73c-.036-.031.38-.52.889-1.409.299-.519.558-1.06.775-1.617a13.46 13.46 0 0 0 .593-2.112 13.2 13.2 0 0 0 .182-2.184 12.113 12.113 0 0 0-.156-1.783c-.172-1.014-.39-1.617-.343-1.633.082.127.145.265.187.411.147.385.261.781.343 1.185.127.597.2 1.205.218 1.815a10.736 10.736 0 0 1-.795 4.394c-.23.565-.51 1.108-.837 1.623a7.438 7.438 0 0 1-.734.988c-.192.218-.306.332-.322.322z" fill="#EB996E"/><path d="m229.086 181.48 5.756 1.997s5.502-2.845 9.293 0c3.791 2.844 7.082 10.337 6.042 13.369 0 0-2.6 3.234-4.607 3.708-2.007.473-9.729-1.404-12.948-2.08-3.219-.676-8.772-4.285-8.772-4.285l5.236-12.709z" fill="#FFBE9D"/><path d="M229.793 189.951a2.34 2.34 0 0 1-.062-.52c0-.39-.047-.853-.078-1.394-.062-1.175-.14-2.797-.166-4.597-.026-1.799.026-3.426.13-4.602.052-.587.119-1.04.176-1.388a1.75 1.75 0 0 1 .12-.52c.042 0-.047.728-.104 1.903a77.15 77.15 0 0 0-.052 4.587c.026 1.794.062 3.343.083 4.591v1.394c.014.183-.002.367-.047.546z" fill="#EB996E"/><path d="M248.779 183.238a18.319 18.319 0 0 0-1.914-1.727 10.534 10.534 0 0 0-11.669-.639 18.84 18.84 0 0 0-2.08 1.502c.138-.19.296-.365.473-.52a9.615 9.615 0 0 1 1.524-1.154 10.36 10.36 0 0 1 11.887.66c.506.389.97.83 1.383 1.316.154.171.286.36.396.562z" fill="#263238"/><path d="M248.04 178.438a11.543 11.543 0 0 0-2.397-1.321 10.578 10.578 0 0 0-6.479-.192c-1.17.328-2.296.796-3.354 1.394a15.778 15.778 0 0 0-2.429 1.716c-.645.551-1.139 1.04-1.477 1.367-.165.19-.348.364-.546.52a3.65 3.65 0 0 1 .468-.582c.45-.507.927-.988 1.43-1.441a14.39 14.39 0 0 1 5.835-3.224 10.364 10.364 0 0 1 6.625.276 7.7 7.7 0 0 1 1.773.998c.192.141.322.276.421.359.099.083.13.125.13.13zM248.087 174.278c0 .052-1.04-.255-2.694-.478a21.211 21.211 0 0 0-2.948-.188 23.156 23.156 0 0 0-3.604.323 23.627 23.627 0 0 0-3.499.925c-.93.331-1.836.727-2.709 1.186-1.493.78-2.335 1.414-2.366 1.368a3.64 3.64 0 0 1 .577-.458 6.55 6.55 0 0 1 .712-.489c.286-.182.609-.395.983-.593.874-.483 1.783-.9 2.72-1.248a21.402 21.402 0 0 1 3.536-.956 21.758 21.758 0 0 1 3.64-.307c.998.005 1.994.086 2.979.244.421.052.796.151 1.123.219a7.9 7.9 0 0 1 .843.218c.242.057.478.136.707.234zM203.975 123.36c.216.484.35 1 .396 1.528a14.72 14.72 0 0 1-.219 4.467 25.637 25.637 0 0 1-.743 3.12 23.79 23.79 0 0 1-1.508 3.458c-1.243 2.392-2.803 4.997-4.613 7.8l-.208.328v-6.162l.203.099-4.883 3.894.042-.062a51.132 51.132 0 0 0-2.122 11.674c-.478 6.328-.093 12.381.203 17.872.296 5.492.426 10.447.598 14.607s.312 7.519.437 9.844c.073 1.154.125 2.049.161 2.673 0 .296.036.52.047.696.01.177 0 .24 0 .24s0-.078-.037-.234c-.036-.156-.041-.401-.072-.697-.058-.609-.13-1.508-.208-2.673a446.352 446.352 0 0 1-.52-9.844c-.182-4.16-.406-9.105-.656-14.601-.249-5.497-.702-11.555-.223-17.904a50.824 50.824 0 0 1 2.179-11.736v-.037h.031l4.867-3.905.203-.166v6.032l-.213-.068c3.572-5.538 6.479-10.353 6.926-14.248a15.29 15.29 0 0 0 .281-4.43 8.068 8.068 0 0 0-.213-1.155 4.313 4.313 0 0 1-.136-.41z" fill="#263238"/><path d="M194.647 190.434h-.167a1.465 1.465 0 0 0-1.367 1.505 1.462 1.462 0 1 0 1.554-1.505h-.02zM194.646 170.394h-.166a1.453 1.453 0 0 0-1.362 1.499 1.46 1.46 0 0 0 1.456 1.41 1.457 1.457 0 0 0 .093-2.909h-.021zM194.48 152.464a1.466 1.466 0 1 0 .192-2.928h-.192a1.467 1.467 0 0 0 0 2.933v-.005z" fill="#fff"/><path d="M172.001 99.876c-1.82-2.022-3.64-4.06-4.987-6.432-1.347-2.371-2.122-5.143-1.685-7.8.26-1.56.926-3.068 1.04-4.68.146-2.184-.77-4.467 0-6.51 1.206-3.204 5.517-3.698 8.128-5.908 2.033-1.72 3.021-4.513 5.257-5.959 1.955-1.269 4.467-1.237 6.76-.915 2.293.322 4.623.91 6.931.598 1.644-.218 3.193-.884 4.8-1.284 1.607-.4 3.411-.52 4.841.332 1.43.853 2.241 2.866 1.3 4.233 2.673-1.232 6.069.853 6.802 3.703.733 2.85-.733 5.933-3.001 7.8-2.267 1.866-5.2 2.756-8.086 3.302-8.184 1.56-17.071.67-24.128-3.76" fill="#263238"/><path d="M200.793 127.4c-.4-3.12-.728-5.684-.749-6.006 0 0 10.359-2.33 9.787-12.802-.276-5.065-1.69-15.444-3.084-24.82a19.531 19.531 0 0 0-20.634-16.64l-1.04.062c-10.842 1.368-15.745 11.342-14.081 22.147l5.855 36.229s2.496 8.013 7.836 9.401l6.76 9.631 1.113-4.16 5.023-4.379a19.76 19.76 0 0 0 2.481-3.687 8.085 8.085 0 0 0 .733-4.976z" fill="#FFBE9D"/><path d="M200.049 121.248s-6.578.978-13.904-2.969c0 0 3.733 7.317 14.112 5.679l-.208-2.71z" fill="#EB996E"/><path d="M203.382 92.778a1.5 1.5 0 0 1-1.341 1.607 1.428 1.428 0 0 1-1.628-1.248 1.491 1.491 0 0 1 1.347-1.617 1.431 1.431 0 0 1 1.622 1.258zM204.844 89.066c-.172.208-1.363-.557-2.969-.442-1.607.114-2.715.993-2.923.816-.088-.078.078-.442.567-.853a4.093 4.093 0 0 1 2.319-.889 3.923 3.923 0 0 1 2.382.598c.52.333.707.676.624.77zM188.188 93.865a1.494 1.494 0 0 1-1.342 1.602 1.422 1.422 0 0 1-1.627-1.243 1.505 1.505 0 0 1 1.336-1.607 1.432 1.432 0 0 1 1.454.708c.095.166.156.35.179.54zM189.056 90.423c-.176.208-1.362-.557-2.969-.442-1.607.114-2.735.993-2.922.806-.094-.078.073-.442.561-.853a4.126 4.126 0 0 1 2.325-.89c.836-.06 1.668.15 2.376.599.52.343.713.686.629.78zM195.687 101.962c0-.094.977-.333 2.6-.65.405-.068.79-.177.842-.458a2.103 2.103 0 0 0-.359-1.201l-1.425-3.047c-1.981-4.337-3.447-7.92-3.27-7.998.176-.078 1.924 3.375 3.91 7.717l1.373 3.068c.291.478.405 1.043.322 1.596a1.044 1.044 0 0 1-.634.645 2.826 2.826 0 0 1-.692.146c-1.643.197-2.652.27-2.667.182zM189.046 84.09c-.13.451-1.747.347-3.64.701s-3.364.972-3.64.598c-.125-.182.114-.608.702-1.076a6.441 6.441 0 0 1 5.528-.988c.733.234 1.107.556 1.05.764zM203.939 84.448c-.255.385-1.388.083-2.725.15-1.336.068-2.444.412-2.73.048-.125-.177.031-.557.52-.936a3.964 3.964 0 0 1 4.394-.156c.479.343.655.686.541.894z" fill="#263238"/><path d="M172.391 97.063c-.182-.062-7.332-1.643-6.625 5.497.707 7.139 8.434 4.81 8.434 4.607 0-.203-1.809-10.104-1.809-10.104z" fill="#FFBE9D"/><path d="M171.039 104.822c-.037 0-.115.098-.318.213a1.238 1.238 0 0 1-.925.114c-.785-.203-1.56-1.336-1.701-2.6a4.167 4.167 0 0 1 .172-1.815 1.452 1.452 0 0 1 .842-1.04.64.64 0 0 1 .77.27c.114.193.083.339.12.344.036.005.14-.13.057-.421a.812.812 0 0 0-.328-.421.967.967 0 0 0-.728-.146 1.76 1.76 0 0 0-1.185 1.238 4.202 4.202 0 0 0-.234 2.033c.187 1.435 1.04 2.709 2.116 2.901a1.333 1.333 0 0 0 1.123-.301c.224-.198.26-.359.219-.369z" fill="#EB996E"/><path d="M206.222 74.022c-.489 2.844-6.24 5.45-11.035 5.31-4.404-.13-6.583-2.315-9.781-3.87-2.028-.983-2.028-.983-4.779-.52-2.22.36-3.375 2.985-4.623 4.857 2.377 5.2 1.415 11.211.406 16.827a2.835 2.835 0 0 1-.723 1.706c-.801.707-2.08.286-2.891-.437-1.264-1.16-1.841-2.876-2.252-4.54a29.377 29.377 0 0 1-.707-11.611 20.128 20.128 0 0 1 4.826-10.504 19.064 19.064 0 0 1 13-5.923 23.4 23.4 0 0 1 13.842 3.931c1.893 1.243 3.64 2.777 4.732 4.769" fill="#263238"/><path d="m196.742 105.56-3.64-1.695a1.204 1.204 0 0 0-.66-.167c-.256.058-.481.21-.63.427a3.374 3.374 0 0 0-.405 3.718 2.851 2.851 0 0 0 3.416 1.258c1.29-.52 1.914-2.033 2.018-3.427l-.099-.114z" fill="#EB996E"/><path d="M194.938 109.372c0 .031-.172.135-.52.213a3.153 3.153 0 0 1-1.56-.115 3.25 3.25 0 0 1-1.805-1.502 3.348 3.348 0 0 1-.223-2.871c.183-.482.47-.917.842-1.274.181-.17.379-.32.593-.447a.935.935 0 0 1 .421-.13.962.962 0 0 1 .421.078c.195.098.384.206.567.322l.494.307.889.551c1.077.687 1.727 1.144 1.69 1.207-.036.062-.754-.271-1.882-.874l-.92-.52-.52-.286c-.177-.088-.364-.208-.52-.27a.39.39 0 0 0-.401.041 2.83 2.83 0 0 0-.478.38c-.309.307-.55.676-.707 1.082a2.928 2.928 0 0 0 .156 2.438 3.004 3.004 0 0 0 1.502 1.384c.448.18.927.27 1.41.265.343.015.535-.016.551.021zM193.789 92.96a12.722 12.722 0 0 0-.287-1.81 7.36 7.36 0 0 0-3.708-4.68 7.375 7.375 0 0 0-5.958-.4 7.02 7.02 0 0 0-1.857 1.004 6.758 6.758 0 0 0-1.56 1.56 7.285 7.285 0 0 0 0 8.658 6.754 6.754 0 0 0 1.56 1.56 7.017 7.017 0 0 0 1.857 1.004 7.399 7.399 0 0 0 5.953-.409 7.387 7.387 0 0 0 3.713-4.672c.139-.594.234-1.197.287-1.804.005.04.005.08 0 .12v.353a3.1 3.1 0 0 1-.042.577 5.89 5.89 0 0 1-.14.78 7.137 7.137 0 0 1-.807 2.013 7.522 7.522 0 0 1-9.053 3.276 7.149 7.149 0 0 1-1.918-1.04 7.03 7.03 0 0 1-1.612-1.607 7.537 7.537 0 0 1 0-8.97 6.925 6.925 0 0 1 1.606-1.607 7.16 7.16 0 0 1 1.919-1.04 7.577 7.577 0 0 1 3.978-.312 7.51 7.51 0 0 1 5.075 3.588c.37.626.642 1.304.806 2.012.065.257.112.517.141.78.032.191.046.384.041.578v.353c.009.045.011.09.006.135zM211.593 92.258a12.959 12.959 0 0 0-.275-1.762 7.245 7.245 0 0 0-2.652-3.937 7.05 7.05 0 0 0-3.016-1.326 7.173 7.173 0 0 0-5.559 1.29 6.852 6.852 0 0 0-1.508 1.518 7.118 7.118 0 0 0 0 8.434 6.726 6.726 0 0 0 1.508 1.514 6.851 6.851 0 0 0 1.804.977 7.224 7.224 0 0 0 3.755.318 7.048 7.048 0 0 0 3.016-1.327 7.244 7.244 0 0 0 2.652-3.936c.132-.58.224-1.17.275-1.763a2.75 2.75 0 0 1 0 .463c.002.19-.012.38-.041.567-.028.256-.073.51-.135.76a7.333 7.333 0 0 1-5.72 5.46 7.418 7.418 0 0 1-3.88-.308 7.466 7.466 0 0 1-3.442-2.569 7.356 7.356 0 0 1 0-8.746 7.467 7.467 0 0 1 3.442-2.569 7.42 7.42 0 0 1 3.88-.306 7.325 7.325 0 0 1 5.72 5.46c.062.25.107.503.135.759.029.187.043.377.041.567a2.75 2.75 0 0 1 0 .462z" fill="#263238"/><path d="M197.08 90.615c-.031.026-.203-.114-.52-.265a2.947 2.947 0 0 0-1.31-.286c-.452.007-.896.12-1.295.333-.312.161-.479.312-.52.28-.042-.03.093-.228.405-.447a2.549 2.549 0 0 1 2.798-.046c.317.208.442.41.442.431zM179.322 91.9a32.843 32.843 0 0 1-3.255 2.6 33.253 33.253 0 0 1-3.422 2.386 31.312 31.312 0 0 1 3.261-2.6 32.298 32.298 0 0 1 3.416-2.386z" fill="#263238"/><path d="M173.16 125.741c-.723 7.057 1.96 14.508 7.623 18.783.442.338.999.67 1.524.478.35-.17.63-.457.79-.811a13.79 13.79 0 0 0 1.685-9.069c-.894 2.361-1.664 4.68-2.569 7.145-4.924-2.995-8.013-9.36-9.053-16.526zM192.333 141.788l4.16-1.518.686 7.025s4.482-8.169 6.339-11.892c1.856-3.723.899-10.307.899-10.307s.661 5.72-3.827 13.037l-3.39 5.512v-5.772l-4.867 3.915zM144.04 177.491a11.096 11.096 0 0 0-6.016-.754 11.584 11.584 0 0 0-5.991 2.268c-1.685 1.357-2.823 3.499-2.6 5.652l.208.026c1.451-3.921 4.332-6.76 8.05-7.119 3.718-.359 7.342 1.305 9.88 4.035-.276-2.038-1.701-3.239-3.531-4.108zM249.049 181.48a9.497 9.497 0 0 0-5.366-2.761 12.035 12.035 0 0 0-10.005 2.896l.79-.645a12.63 12.63 0 0 1 6.667-1.809 9.627 9.627 0 0 1 6.349 2.537c1.56 1.477 2.491 3.479 3.38 5.429a6.801 6.801 0 0 0-1.815-5.647z" fill="#000" opacity=".3"/><path d="M222.274 148.876c.042-.195.105-.385.187-.567.162-.411.359-.915.588-1.513.52-1.274 1.196-3.032 1.924-4.992s1.357-3.744 1.81-5.034l.52-1.534c.055-.191.132-.376.228-.551-.016.199-.06.395-.13.583-.098.374-.254.904-.457 1.56a97.557 97.557 0 0 1-1.737 5.07 98.541 98.541 0 0 1-2.002 4.971c-.27.629-.52 1.133-.671 1.482a2.4 2.4 0 0 1-.26.525zM156.718 149.386c-.073 0-.64-2.46-1.264-5.528-.624-3.068-1.071-5.538-1.014-5.58.057-.041.635 2.46 1.259 5.528.624 3.068 1.092 5.564 1.019 5.58z" fill="#263238"/><path d="M155.735 180.32c.166.084-1.903-16.203-1.903-16.203s1.305-12.36 2.038-12.932v-4.363s2.023-1.222 2.564.754c0 0 1.794-1.56 2.08 2.148.286 3.707.379 7.493.379 7.493l3.989 9.973.655.333s.858-7.8 1.357-8.965c.499-1.164.843-3.946 2.73-3.525 1.888.421 2.049 1.981 1.711 4.529-.338 2.548-.764 5.2-.603 6.833.161 1.633.905 5.267.676 8.148-.229 2.881-1.81 5.918-3.463 8.05-1.654 2.132-4.821 6.547-6.537 7.873-.556.468-5.673-10.146-5.673-10.146z" fill="#FFBE9D"/><path d="M157.752 167.066a3.124 3.124 0 0 1 0-.697c.032-.52.078-1.134.13-1.893.12-1.596.307-3.801.52-6.24l.323-3.427a6.135 6.135 0 0 0 0-1.471 2.088 2.088 0 0 0-.52-1.124 2.221 2.221 0 0 0-1.628-.712 4.726 4.726 0 0 0-.681.083.615.615 0 0 1 .166-.083c.167-.063.343-.099.52-.109a2.289 2.289 0 0 1 1.774.691c.314.338.516.765.577 1.222a5.98 5.98 0 0 1 0 1.524 772.38 772.38 0 0 0-.302 3.432 445.88 445.88 0 0 1-.613 6.24l-.214 1.888c.002.226-.015.452-.052.676zM159.895 160.404a5.646 5.646 0 0 0-.707 1.285 21.52 21.52 0 0 0-.661 3.515 147.471 147.471 0 0 1-.593 3.562c-.06.496-.168.986-.322 1.461.002-.5.047-1 .135-1.492.115-.915.297-2.179.52-3.573.224-1.393.369-2.667.754-3.541.137-.342.328-.66.567-.941.172-.208.296-.286.307-.276z" fill="#EB996E"/><path d="M158.428 147.363c.073.165.12.34.141.52.073.333.161.816.26 1.419.197 1.202.416 2.871.556 4.727.141 1.857.167 3.541.146 4.758 0 .609-.026 1.103-.052 1.441a1.83 1.83 0 0 1-.063.52 17.447 17.447 0 0 1-.078-1.966 93.596 93.596 0 0 0-.223-4.737 94.546 94.546 0 0 0-.473-4.722 16.73 16.73 0 0 1-.214-1.96zM169.936 162.63a1.44 1.44 0 0 1-1.341.114c-.765-.228-1.118-.816-1.04-.842.358.227.735.422 1.128.582.413.084.832.132 1.253.146z" fill="#EB996E"/><path d="m155.959 178.292-10.536 4.431h-6.281s-6.209 1.939-7.166 7.763c-.957 5.824-1.092 8.814 1.638 9.537 2.73.723 10.442.801 14.264-.468 3.822-1.269 13.837-9.36 13.837-9.36l.962-5.845-6.718-6.058z" fill="#FFBE9D"/><path d="M158.429 184.73s-.12-.088-.302-.275a6.677 6.677 0 0 1-.681-.874 11.85 11.85 0 0 1-1.472-3.333 19.756 19.756 0 0 1-.65-3.578 6.73 6.73 0 0 1-.041-1.508c.112.488.189.983.228 1.482.161 1.192.402 2.372.723 3.531a13.954 13.954 0 0 0 1.373 3.307c.473.785.858 1.212.822 1.248zM163.02 186.576a11 11 0 0 0 .598-2.257 7.278 7.278 0 0 0-1.414-5.293c-.64-.895-1.363-1.675-1.971-2.434a11.53 11.53 0 0 1-1.425-2.153 5.683 5.683 0 0 1-.52-1.664 2.106 2.106 0 0 1 0-.634c.122.769.364 1.515.718 2.21.409.742.895 1.439 1.45 2.08.609.738 1.337 1.518 1.992 2.433a7.585 7.585 0 0 1 1.316 2.886c.177.856.2 1.737.067 2.6a6.826 6.826 0 0 1-.478 1.675c-.083.187-.161.327-.213.421-.052.094-.115.135-.12.13z" fill="#EB996E"/><path d="M146.77 161.2a53.107 53.107 0 0 1-2.569-4.68c-1.352-2.6-2.392-4.763-2.329-4.8a53.107 53.107 0 0 1 2.569 4.68 52.29 52.29 0 0 1 2.329 4.8zM163.8 142.225a32.239 32.239 0 0 1 1.586-3.9 33.425 33.425 0 0 1 1.836-3.785 33.456 33.456 0 0 1-1.586 3.9 33.008 33.008 0 0 1-1.836 3.785zM180.508 154.539a23.966 23.966 0 0 1-2.392-2.673 24.316 24.316 0 0 1-2.179-2.844 23.276 23.276 0 0 1 2.387 2.672 24.069 24.069 0 0 1 2.184 2.845zM176.665 171.475a20.684 20.684 0 0 1 1.799-2.714 19.83 19.83 0 0 1 2.023-2.553 20.355 20.355 0 0 1-1.799 2.714c-.6.907-1.277 1.762-2.023 2.553zM171.496 195.4a5.082 5.082 0 0 1-.608-1.04 41.593 41.593 0 0 1-1.233-2.641 36.6 36.6 0 0 1-1.04-2.72 5.295 5.295 0 0 1-.333-1.165c.215.345.389.713.52 1.098l1.118 2.678c.432.993.817 1.892 1.155 2.667.182.358.323.735.421 1.123zM186.16 185.229a19.328 19.328 0 0 1-3.156-.473 18.869 18.869 0 0 1-3.12-.738c2.11.227 4.198.632 6.24 1.211h.036zM197.6 162.874a37.808 37.808 0 0 1 3.006-3.442 38.989 38.989 0 0 1 3.213-3.266 39.143 39.143 0 0 1-3.01 3.448 39.969 39.969 0 0 1-3.209 3.26zM209.04 192.686c-.057.052-1.737-1.898-3.754-4.342-2.018-2.444-3.604-4.472-3.547-4.519.057-.047 1.737 1.898 3.755 4.342 2.017 2.444 3.593 4.472 3.546 4.519zM137.904 179.982c.037.073-1.497.853-3.172 2.138-1.674 1.284-2.839 2.553-2.901 2.496.189-.33.427-.628.707-.884a16.039 16.039 0 0 1 2.028-1.826 16.264 16.264 0 0 1 2.298-1.466 3.96 3.96 0 0 1 1.04-.458zM142.189 168.48a11.1 11.1 0 0 1-1.222 2.08 10.944 10.944 0 0 1-1.451 1.934 11.22 11.22 0 0 1 1.222-2.08c.41-.697.896-1.346 1.451-1.934zM151.84 179.774a6.877 6.877 0 0 1-1.009-4.446c.078 0 .104 1.04.39 2.252.286 1.212.692 2.158.619 2.194zM153.27 143.936a7.963 7.963 0 0 1-2.002.421 7.7 7.7 0 0 1-2.043.151 8.054 8.054 0 0 1 2.007-.421 7.921 7.921 0 0 1 2.038-.151zM160.519 131.076a15.954 15.954 0 0 1-3.64 2.018 7.94 7.94 0 0 1 1.752-1.128 8.251 8.251 0 0 1 1.888-.89zM180.908 136.51a18.894 18.894 0 0 1-2.007-2.412 18.776 18.776 0 0 1-1.789-2.574 36.247 36.247 0 0 1 3.796 4.986zM206.789 149.438a12.723 12.723 0 0 1-3.146-5.055c.078-.031.634 1.181 1.508 2.569.873 1.388 1.7 2.434 1.638 2.486zM216.669 152.693a30.356 30.356 0 0 1-2.392 5.267c.277-.926.637-1.826 1.076-2.688a15.2 15.2 0 0 1 1.316-2.579zM218.052 139.209a27.93 27.93 0 0 1-2.632-2.943 28.85 28.85 0 0 1-2.418-3.12 57.61 57.61 0 0 1 5.05 6.063zM202.961 128.258a12.292 12.292 0 0 1-.234-2.517 11.842 11.842 0 0 1 .037-2.532c.165.828.243 1.672.234 2.517.081.842.069 1.692-.037 2.532zM215.28 127.577a20.018 20.018 0 0 1-3.213.567 19.727 19.727 0 0 1-3.245.296 20.018 20.018 0 0 1 3.213-.567 19.727 19.727 0 0 1 3.245-.296zM234.64 141.809a32.742 32.742 0 0 1-1.935-3.681 32.214 32.214 0 0 1-1.684-3.802 32.376 32.376 0 0 1 1.939 3.682 32.34 32.34 0 0 1 1.68 3.801zM231.4 154.107a33.85 33.85 0 0 1 1.175-5.865 16.81 16.81 0 0 1-.452 2.958 16.434 16.434 0 0 1-.723 2.907zM240.365 163.8a32.84 32.84 0 0 1-1.56-3.994 32.987 32.987 0 0 1-1.284-4.087 34.666 34.666 0 0 1 1.56 3.999 34.071 34.071 0 0 1 1.284 4.082zM239.112 169.473a7.18 7.18 0 0 1-2.626-.941 6.957 6.957 0 0 1-2.221-1.685c.052-.062 1.009.728 2.351 1.446 1.341.717 2.522 1.102 2.496 1.18zM250.64 182.4a14.834 14.834 0 0 1-1.617-3.64c.7 1.136 1.244 2.36 1.617 3.64zM182.629 200.434a10.412 10.412 0 0 1-.405-2.304 10.483 10.483 0 0 1-.135-2.334c.237.754.382 1.535.431 2.324.125.765.161 1.541.109 2.314zM217.953 199.54a9.688 9.688 0 0 1 .338-2.252 9.814 9.814 0 0 1 .608-2.194 9.53 9.53 0 0 1-.343 2.251 9.668 9.668 0 0 1-.603 2.195z" fill="#fff"/><path d="m224.723 96.429 4.597-8.029a21.562 21.562 0 0 1 5.375-28.589 21.558 21.558 0 1 1-.211 34.31l-9.761 2.308z" fill="#FAFAFA"/><path d="m224.723 96.429 9.761-2.226h.098l-.062-.083-.094.088a22.223 22.223 0 0 0 4.431 2.673 21.557 21.557 0 0 0 5.907 1.685 19.32 19.32 0 0 0 3.411.172c.588-.032 1.181-.047 1.784-.094l1.82-.276a21.727 21.727 0 0 0 13.463-8.642 21.53 21.53 0 0 0 3.64-8.32 22.077 22.077 0 0 0-.255-9.584c-.818-3.27-2.4-6.3-4.618-8.84l-.889-1.014c-.291-.327-.634-.592-.946-.894-.312-.302-.624-.603-.978-.853l-1.04-.77a8.657 8.657 0 0 0-1.071-.707l-1.092-.665-1.144-.557a10.89 10.89 0 0 0-1.155-.52 22.077 22.077 0 0 0-9.656-1.482 21.216 21.216 0 0 0-8.84 2.6 21.84 21.84 0 0 0-10.239 12.6 23.18 23.18 0 0 0-.936 7.004 21.329 21.329 0 0 0 1.04 6.048 22.036 22.036 0 0 0 2.158 4.638v-.067c-2.881 5.163-4.29 7.685-4.513 8.08.228-.39 1.674-2.896 4.622-8.018v-.062a21.667 21.667 0 0 1-2.09-4.623 21.295 21.295 0 0 1-1.04-6.006 23.262 23.262 0 0 1 .952-6.937 21.688 21.688 0 0 1 10.145-12.428 20.959 20.959 0 0 1 8.762-2.6 21.773 21.773 0 0 1 9.537 1.472c.389.15.769.324 1.138.52l1.134.551 1.092.676c.362.208.71.44 1.04.697l1.04.764c.348.25.64.562.962.843.322.28.65.561.936.884l.868.951a21.087 21.087 0 0 1 4.566 8.752c.781 3.097.868 6.329.255 9.464a21.191 21.191 0 0 1-3.588 8.231 21.524 21.524 0 0 1-13.302 8.575l-1.799.281c-.598.047-1.186.068-1.768.099a19.507 19.507 0 0 1-3.38-.156 21.488 21.488 0 0 1-5.876-1.633 22.03 22.03 0 0 1-4.415-2.631l-.4-.307.307.4.036-.104-9.719 2.35z" fill="#263238"/><path d="M253.448 76.206a2.083 2.083 0 0 0 1.296 1.9 2.08 2.08 0 1 0-1.296-1.9zM245.029 76.206a2.084 2.084 0 0 0 1.302 1.903 2.08 2.08 0 1 0-1.302-1.903zM236.631 75.156a2.08 2.08 0 1 0 3.626 2.041 2.08 2.08 0 0 0-3.626-2.041z" fill="#263238"/></svg>