<svg width="88" height="95" fill="none" xmlns="http://www.w3.org/2000/svg"><path d="M23.04 29.609H2.599a2.59 2.59 0 0 1-1.44-.437 2.62 2.62 0 0 1-.41-4.005l20.7-21.078a2.597 2.597 0 0 1 1.85-.777h10.22a2.59 2.59 0 0 1 2.21 1.237 2.617 2.617 0 0 1 .115 2.538l-10.48 21.078a2.59 2.59 0 0 1-2.325 1.444z" fill="#A0EBFF"/><path d="M85.402 29.609H64.96a2.59 2.59 0 0 1-2.325-1.444L52.156 7.087a2.62 2.62 0 0 1 1.06-3.445 2.59 2.59 0 0 1 1.264-.33H64.7a2.59 2.59 0 0 1 1.85.777l20.702 21.078a2.614 2.614 0 0 1 .547 2.84c-.198.474-.53.88-.957 1.165a2.59 2.59 0 0 1-1.44.437z" fill="#73C8F0"/><path d="M20.134 26.932 33.52 3.312h20.96l13.345 23.62H20.134z" fill="#D2F0FF"/><path d="m62.15 26.932-20.526 46.57a2.62 2.62 0 0 0 .98 3.257 2.591 2.591 0 0 0 3.353-.483l41.4-47.56c.43-.492.658-1.13.64-1.785H62.15z" fill="#0073AA"/><path d="M25.851 26.932H.003c-.018.654.21 1.292.64 1.785l41.4 47.56a2.596 2.596 0 0 0 1.958.892 2.608 2.608 0 0 0 2.486-1.855 2.62 2.62 0 0 0-.11-1.81L25.85 26.931z" fill="#41B4E6"/><path d="m20.134 26.932 21.49 48.683c.204.463.537.856.959 1.131a2.59 2.59 0 0 0 3.793-1.13l21.45-48.684H20.133z" fill="#A0EBFF"/><path d="M43.98 26.932h23.845L54.48 3.312h-10.5v23.62z" fill="#41B4E6"/><path d="M44 77.169a2.59 2.59 0 0 0 1.418-.423c.422-.276.755-.668.958-1.13l21.45-48.684H44v50.237z" fill="#73C8F0"/></svg>