<svg width="88" height="89" viewBox="0 0 88 89" fill="none" xmlns="http://www.w3.org/2000/svg">
<g clip-path="url(#clip0_0_547)">
<path d="M0 30.2095L44 82.0163L24.4445 30.2095H0Z" fill="#82C8DC"/>
<path d="M63.5555 30.2095L44 82.0163L88 30.2095H63.5555Z" fill="#B4E6F0"/>
<path d="M44.0001 30.2095H63.5556L44.0001 7.35352L24.4446 30.2095H44.0001Z" fill="#D9FFFF"/>
<path d="M44 30.2095H24.4445L44 82.0163L63.5555 30.2095H44ZM19.7241 7.35352L0 30.2095H24.4445L19.7241 7.35352Z" fill="#A0DCE6"/>
<path d="M87.9999 30.2095L68.2757 7.35352L63.5554 30.2095H87.9999Z" fill="#EBFFFF"/>
<path d="M68.2758 7.35352H44L63.5555 30.2095L68.2758 7.35352ZM44 7.35352H19.7241L24.4444 30.2095L44 7.35352Z" fill="#B4E6F0"/>
</g>
<defs>
<clipPath id="clip0_0_547">
<rect width="88" height="88.3764" fill="white" transform="translate(0 0.496826)"/>
</clipPath>
</defs>
</svg>
