<svg width="88" height="89" fill="none" xmlns="http://www.w3.org/2000/svg"><g clip-path="url(#a)"><path d="m0 30.21 44 51.806L24.445 30.21H0z" fill="#82C8DC"/><path d="M63.556 30.21 44 82.016 88 30.21H63.556z" fill="#B4E6F0"/><path d="M44 30.21h19.556L44 7.353 24.445 30.209H44z" fill="#D9FFFF"/><path d="M44 30.21H24.445L44 82.016 63.556 30.21H44zM19.724 7.353 0 30.209h24.445l-4.72-22.855z" fill="#A0DCE6"/><path d="M88 30.21 68.276 7.353l-4.72 22.855H88z" fill="#EBFFFF"/><path d="M68.276 7.354H44l19.556 22.855 4.72-22.855zM44 7.354H19.724l4.72 22.855L44 7.354z" fill="#B4E6F0"/></g><defs><clipPath id="a"><path fill="#fff" transform="translate(0 .497)" d="M0 0h88v88.376H0z"/></clipPath></defs></svg>