<svg width="393" height="393" fill="none" xmlns="http://www.w3.org/2000/svg"><path d="m349.015 91.057-75.654 75.653a82.175 82.175 0 0 1 5.555 29.789c0 22.753-9.227 43.357-24.142 58.273-14.916 14.916-35.52 24.143-58.273 24.143a82.172 82.172 0 0 1-29.789-5.556l-75.653 75.654c29.937 20.737 66.269 32.895 105.442 32.895 51.197 0 97.555-20.748 131.104-54.305 33.558-33.549 54.305-79.908 54.305-131.104-.001-39.173-12.158-75.505-32.895-105.442z" fill="url(#a)"/><path d="M40.005 273.205.407 383.973c-1.916 5.359 3.26 10.536 8.62 8.62l110.767-39.598c22.1-22.099-57.69-101.889-79.79-79.79z" fill="url(#b)"/><path d="m253.513 219.289-133.72 133.706c-2.185-3.785-5.504-7.135-9.757-9.509-5.811-3.218-14.897-1.456-21.188.452-1.37.408-2.622-.306-3.131-1.398a2.617 2.617 0 0 1-.03-2.242c.015 0 .015-.015.015-.015.347-.795.653-1.606.918-2.432l.35-1.18c.014-.029.014-.044.014-.072.336-1.267.568-2.534.7-3.83.043-.422.072-.859.1-1.281a24.886 24.886 0 0 0-4.806-16.077 24.594 24.594 0 0 0-2.489-2.898 24.502 24.502 0 0 0-2.898-2.491 24.922 24.922 0 0 0-16.077-4.805c-.422.029-.86.058-1.282.101a24.261 24.261 0 0 0-3.83.699c-.029 0-.043 0-.072.015l-1.18.35c-.422.131-.83.276-1.238.437-.393.145-.787.306-1.18.481-.014 0-.014 0-.029.014a2.612 2.612 0 0 1-2.242-.029c-1.092-.509-1.806-1.762-1.398-3.131 1.908-6.291 3.67-15.363.451-21.173-2.374-4.267-5.708-7.588-9.509-9.771l133.707-133.721c6.028-6.014 15.785-6.014 21.8 0l11.373 11.373 35.255 35.256 11.373 11.373c6.014 6.013 6.014 15.769 0 21.798z" fill="url(#c)"/><path d="M242.14 186.116 85.717 342.54a2.627 2.627 0 0 1-.03-2.243c.015 0 .015-.014.015-.014.35-.801 1.864-6.233 1.98-7.514.06-.437.088-.86.102-1.282a24.93 24.93 0 0 0-4.805-16.077 24.585 24.585 0 0 0-2.49-2.898 24.934 24.934 0 0 0-18.975-7.296c-.422.015-.844.044-1.281.102a21.75 21.75 0 0 0-3.83.699c-.03 0-.044 0-.073.014-.393.102-3.204 1.092-3.597 1.267-.015 0-.015 0-.03.015a2.612 2.612 0 0 1-2.242-.029L206.884 150.86l35.256 35.256z" fill="url(#d)"/><path d="M22.767 370.234a55.543 55.543 0 0 0-13.833-10.111L.408 383.974c-1.916 5.359 3.26 10.535 8.62 8.619l23.85-8.526a55.509 55.509 0 0 0-10.111-13.833z" fill="url(#e)"/><path d="M380.528 12.473 219.063 173.94l-23.62-23.62c-5.148-5.148-5.148-13.496 0-18.644l14.127-14.127a32.511 32.511 0 0 0 9.523-22.99V76.954c0-13.85 8.773-26.18 21.858-30.718L372.988.436c7.309-2.535 13.01 6.566 7.54 12.037z" fill="url(#f)"/><path d="M380.528 12.473 219.062 173.938l23.62 23.619c5.148 5.149 13.496 5.149 18.644 0l14.127-14.126a32.511 32.511 0 0 1 22.99-9.523h17.603c13.85 0 26.18-8.773 30.718-21.858l45.8-132.038c2.536-7.309-6.566-13.01-12.036-7.539z" fill="url(#g)"/><path d="m304.455 96.128 81.102-81.103c2.019-2.02 2.259-5.306.374-7.451a5.359 5.359 0 0 0-7.826-.26l-81.043 81.043c-5.306 5.306-12.659 8.211-20.134 7.551-6.915-.61-14.06 2.007-18.989 7.856-6.986 8.288-6.875 20.65.243 28.824 8.546 9.814 23.449 10.199 32.494 1.154 4.737-4.736 6.885-11.079 6.449-17.274-.533-7.548 1.979-14.99 7.33-20.34z" fill="url(#h)"/><path d="M217.723 103.885a32.524 32.524 0 0 1-8.153 13.662l-14.127 14.127c-5.148 5.148-5.148 13.496 0 18.644l23.62 23.619 23.619 23.62c5.148 5.148 13.496 5.148 18.644 0l14.127-14.127a32.507 32.507 0 0 1 13.662-8.153l-71.392-71.392z" fill="url(#i)"/><path d="m233.739 239.063-79.801-79.802 31.802-31.803a9.43 9.43 0 0 1 13.338 0l66.464 66.464c3.683 3.683 3.683 9.655 0 13.337l-31.803 31.804z" fill="url(#j)"/><defs><linearGradient id="a" x1="276.105" y1="276.103" x2="220.09" y2="220.089" gradientUnits="userSpaceOnUse"><stop stop-color="#843561" stop-opacity="0"/><stop offset="1" stop-color="#3A2F4D"/></linearGradient><linearGradient id="b" x1="9.282" y1="303.71" x2="89.072" y2="383.501" gradientUnits="userSpaceOnUse"><stop stop-color="#FFE0EA"/><stop offset="1" stop-color="#FFC0D5"/></linearGradient><linearGradient id="c" x1="40.005" y1="243.987" x2="258.023" y2="243.987" gradientUnits="userSpaceOnUse"><stop stop-color="#FFCE47"/><stop offset="1" stop-color="#FF9356"/></linearGradient><linearGradient id="d" x1="179.407" y1="279.808" x2="98.859" y2="199.259" gradientUnits="userSpaceOnUse"><stop stop-color="#FFCE47"/><stop offset="1" stop-color="#FF9356"/></linearGradient><linearGradient id="e" x1="9.914" y1="378.052" x2="30.274" y2="398.411" gradientUnits="userSpaceOnUse"><stop stop-color="#2F73A0"/><stop offset="1" stop-color="#174461"/></linearGradient><linearGradient id="f" x1="283.486" y1="68.902" x2="293.993" y2="86.164" gradientUnits="userSpaceOnUse"><stop stop-color="#EDF5FF"/><stop offset="1" stop-color="#C7E9FF"/></linearGradient><linearGradient id="g" x1="310.17" y1="102.116" x2="324.429" y2="127.633" gradientUnits="userSpaceOnUse"><stop stop-color="#EDF5FF"/><stop offset="1" stop-color="#C7E9FF"/></linearGradient><linearGradient id="h" x1="337.112" y1="85.049" x2="312.626" y2="60.563" gradientUnits="userSpaceOnUse"><stop stop-color="#2F73A0"/><stop offset="1" stop-color="#174461"/></linearGradient><linearGradient id="i" x1="244.337" y1="148.533" x2="230.96" y2="161.91" gradientUnits="userSpaceOnUse"><stop stop-color="#7ACBFF" stop-opacity="0"/><stop offset="1" stop-color="#2F73A0"/></linearGradient><linearGradient id="j" x1="219.266" y1="168.061" x2="198.442" y2="201.507" gradientUnits="userSpaceOnUse"><stop stop-color="#2F73A0"/><stop offset="1" stop-color="#174461"/></linearGradient></defs></svg>