<svg width="48" height="48" fill="none" xmlns="http://www.w3.org/2000/svg"><path d="M41.922 6.242h-.57A4.1 4.1 0 0 0 40.296.81a4.1 4.1 0 0 0-5.855 1.014l-2.957 4.42H6.077A3.791 3.791 0 0 0 2.29 10.03v24.213a3.791 3.791 0 0 0 3.787 3.787h14.71l-1.11 4.669h-2.4a2.839 2.839 0 0 0-2.835 2.835v.592h-2.957a.938.938 0 0 0 0 1.875h25.03a.938.938 0 0 0 0-1.875h-2.957v-.592a2.839 2.839 0 0 0-2.835-2.835h-2.4l-1.11-4.669h14.71a3.791 3.791 0 0 0 3.787-3.787V10.03a3.791 3.791 0 0 0-3.788-3.787zM28.49 22.722c-1.466 1.027-4.212-.368-6.834 1.032-.64-3.324-.237-6.45 3.094-7.14.43-.09.894-.13 1.288-.123l3.392 2.517c.492 1.43.307 2.842-.94 3.715zm.945-10.048 2.654 1.97-2.041 2.487-2.403-1.782 1.79-2.675zm6.563-9.809a2.227 2.227 0 0 1 3.18-.55 2.227 2.227 0 0 1 .395 3.203l-6.294 7.674-2.8-2.078 5.52-8.249zm-4.315 42.668v.592H16.317v-.592c0-.53.43-.96.96-.96h13.445c.53 0 .96.43.96.96zm-5.287-2.835h-4.793l1.112-4.669h2.57l1.111 4.669zm17.439-8.456a1.914 1.914 0 0 1-1.913 1.912H6.078a1.914 1.914 0 0 1-1.912-1.912v-4.39h2.679a.938.938 0 0 0 0-1.875h-2.68V10.029c0-1.054.859-1.912 1.913-1.912h24.151l-4.348 6.498c-1.837.017-3.672.657-4.872 2.059-1.634 1.907-1.921 4.904-.854 8.907a.938.938 0 0 0 1.554.436c2.424-2.316 5.443.21 8.147-1.978 1.65-1.336 2.04-3.46 1.418-5.446l8.593-10.476h2.056c1.055 0 1.912.858 1.912 1.912v17.948h-29.49a.938.938 0 0 0 0 1.875h29.49v4.39z" fill="#fff"/><path d="M10.413 27.995a.937.937 0 1 0 .366 1.837.937.937 0 0 0-.366-1.837z" fill="#fff"/></svg>