<svg width="38" height="38" fill="none" xmlns="http://www.w3.org/2000/svg"><path d="M34 .25H4A3.75 3.75 0 0 0 .25 4v20A3.75 3.75 0 0 0 4 27.75h5.662a5.238 5.238 0 0 0 0 .625 9.375 9.375 0 1 0 18.75 0 5.213 5.213 0 0 0 0-.625h5.587A3.75 3.75 0 0 0 37.75 24V4A3.75 3.75 0 0 0 34 .25zm-15 35a6.875 6.875 0 1 1 6.875-6.875A6.888 6.888 0 0 1 19 35.25zM35.25 24A1.25 1.25 0 0 1 34 25.25h-6.175a9.35 9.35 0 0 0-17.65 0H4A1.25 1.25 0 0 1 2.75 24V4A1.25 1.25 0 0 1 4 2.75h30A1.25 1.25 0 0 1 35.25 4v20z" fill="#fff"/><path d="m18.15 28.275-1.65-1.637-1.763 1.762 2.5 2.5a1.25 1.25 0 0 0 1.762 0l4.225-4.212-1.725-1.75-3.35 3.337zM31.5 5.25h-6.25v2.5h3.237l-6.075 6.063-3.638-3.638a1.25 1.25 0 0 0-1.725 0L4.737 21.425l1.687 1.837L17.862 12.75l3.637 3.75a1.25 1.25 0 0 0 1.763 0l6.987-6.988v3.238h2.5V6.5a1.25 1.25 0 0 0-1.25-1.25zm-3.75 12.5h5v2.5h-5v-2.5zM5.25 5.25H14v2.5H5.25v-2.5zm0 5h6.25v2.5H5.25v-2.5z" fill="#fff"/></svg>