<svg width="48" height="48" fill="none" xmlns="http://www.w3.org/2000/svg"><g clip-path="url(#a)" fill="#fff"><path d="M46.5 3.75h-5.25V3c0-1.24-1.01-2.25-2.25-2.25S36.75 1.76 36.75 3v.75h-3V3c0-1.24-1.01-2.25-2.25-2.25S29.25 1.76 29.25 3v.75h-3V3c0-1.24-1.01-2.25-2.25-2.25S21.75 1.76 21.75 3v.75h-3V3c0-1.24-1.01-2.25-2.25-2.25S14.25 1.76 14.25 3v.75h-3V3C11.25 1.76 10.24.75 9 .75S6.75 1.76 6.75 3v.75H1.5a.75.75 0 0 0-.75.75V39a.75.75 0 0 0 .75.75h24v7.5H27v-22.5h1.5v22.5H30v-22.5h1.5v22.5H33v-7.5h2.345l.658 7.565 1.494-.13-1.169-13.435h5.343l-1.169 13.435 1.494.13.659-7.565H46.5a.75.75 0 0 0 .75-.75V4.5a.75.75 0 0 0-.75-.75zM38.25 3a.75.75 0 0 1 1.5 0v3a.75.75 0 0 1-1.5 0V3zm-7.5 0a.75.75 0 0 1 1.5 0v3a.75.75 0 0 1-1.5 0V3zm-7.5 0a.75.75 0 0 1 1.5 0v3a.75.75 0 0 1-1.5 0V3zm-7.5 0a.75.75 0 0 1 1.5 0v3a.75.75 0 0 1-1.5 0V3zm-7.5 0a.75.75 0 0 1 1.5 0v3a.75.75 0 0 1-1.5 0V3zm19.213 20.25 1.787-3.573 1.787 3.573h-3.573zm12.817-3.66 1.63 1.63c.533.535.84 1.274.84 2.03 0 .756-.307 1.495-.84 2.03l-.97.97h-1.19v-3h-1.5v3h-1.17a6.79 6.79 0 0 1-1.83-4.646v-.6c0-1.271.461-2.5 1.299-3.456L39 14.747V16.5a4.4 4.4 0 0 0 1.28 3.09zm-3.066 8.16h3.572l.75 1.5h-5.072l.75-1.5zm-1.016 4.5-.13-1.5h5.864l-.13 1.5h-5.604zm9.552 6h-2.965l.712-8.185a.745.745 0 0 0-.077-.4l-1.258-2.517.807-.806a4.402 4.402 0 0 0 1.281-3.092 4.4 4.4 0 0 0-1.28-3.09l-1.63-1.63a2.893 2.893 0 0 1-.84-2.03v-3.75a.75.75 0 0 0-1.314-.494l-3.766 4.303a6.749 6.749 0 0 0-1.67 4.445v.6c0 2.05.734 3.988 2.095 5.529l-1.266 2.532a.746.746 0 0 0-.077.4l.713 8.185H33V24a.751.751 0 0 0-.079-.335l-3-6c-.254-.509-1.087-.509-1.341 0l-3 6a.743.743 0 0 0-.08.335v14.25H2.25v-33h4.5V6c0 1.24 1.01 2.25 2.25 2.25S11.25 7.24 11.25 6v-.75h3V6c0 1.24 1.01 2.25 2.25 2.25S18.75 7.24 18.75 6v-.75h3V6c0 1.24 1.01 2.25 2.25 2.25S26.25 7.24 26.25 6v-.75h3V6c0 1.24 1.01 2.25 2.25 2.25S33.75 7.24 33.75 6v-.75h3V6c0 1.24 1.01 2.25 2.25 2.25S41.25 7.24 41.25 6v-.75h4.5v33z"/><path d="M24 21.75a6.007 6.007 0 0 0-6.921-5.929 5.975 5.975 0 0 0-5.829-4.571c-3.308 0-6 2.692-6 6 0 1.206.366 2.384 1.041 3.375A6.002 6.002 0 0 0 5.25 24a6.008 6.008 0 0 0 5.292 5.958A6.008 6.008 0 0 0 16.5 35.25c3.308 0 6-2.692 6-6a5.946 5.946 0 0 0-.72-2.846A5.956 5.956 0 0 0 24 21.75zm-3.626 3.817a.75.75 0 0 0-.214 1.072c.547.76.84 1.674.84 2.611 0 2.482-2.018 4.5-4.5 4.5a4.504 4.504 0 0 1-4.5-4.5.75.75 0 0 0-.75-.75 4.504 4.504 0 0 1-4.5-4.5c0-1.056.375-2.083 1.055-2.892a.75.75 0 0 0 0-.965A4.504 4.504 0 0 1 6.75 17.25c0-2.482 2.018-4.5 4.5-4.5a4.482 4.482 0 0 1 4.477 4.05.75.75 0 0 0 .964.644 4.504 4.504 0 0 1 5.243 6.492 4.478 4.478 0 0 1-1.56 1.631zM24 9.75c-1.654 0-3 1.345-3 3s1.346 3 3 3 3-1.345 3-3-1.346-3-3-3zm0 4.5c-.827 0-1.5-.673-1.5-1.5s.673-1.5 1.5-1.5 1.5.673 1.5 1.5-.673 1.5-1.5 1.5zm-18 18c-1.24 0-2.25 1.01-2.25 2.25S4.76 36.75 6 36.75s2.25-1.01 2.25-2.25S7.24 32.25 6 32.25zm0 3a.75.75 0 0 1 0-1.5.75.75 0 0 1 0 1.5z"/></g><defs><clipPath id="a"><path fill="#fff" d="M0 0h48v48H0z"/></clipPath></defs></svg>