<svg width="48" height="48" fill="none" xmlns="http://www.w3.org/2000/svg"><path d="M7.746 24.252a.64.64 0 1 0 0-1.28.64.64 0 0 0 0 1.28zm6.323-14.002a.638.638 0 0 0 .905 0l.452-.453.453.453a.638.638 0 0 0 1.092-.453.64.64 0 0 0-.187-.452l-.453-.453.453-.452a.64.64 0 1 0-.905-.905l-.452.452-.453-.452a.64.64 0 1 0-.905.905l.453.452-.453.453a.64.64 0 0 0 0 .905zm-5.043 3.122c-1.058 0-1.92.862-1.92 1.92a1.92 1.92 0 1 0 1.92-1.92zm0 2.56a.64.64 0 1 1 .002-1.281.64.64 0 0 1-.002 1.281zm20.16 23.04h-2.88v-11.52a.64.64 0 0 0-.148-.41l-3.2-3.84a.64.64 0 0 0-.73-.184l-3.2 1.28a.64.64 0 0 0 .476 1.189l2.768-1.108 2.754 3.305v11.288h-3.593a.888.888 0 0 1-.887-.887v-1.024c0-2.086-.894-4.07-2.52-5.585a11.169 11.169 0 0 1-3.529-9.024c.385-5.285 4.637-9.708 9.89-10.289.425-.047.852-.07 1.28-.07a.64.64 0 1 0 0-1.28c-.472 0-.95.026-1.42.078-5.856.648-10.597 5.578-11.027 11.467a12.445 12.445 0 0 0 3.934 10.054c1.362 1.27 2.112 2.922 2.112 4.649v1.024c0 .91.565 1.688 1.362 2.008a1.574 1.574 0 0 0-.082.48c0 .361.126.691.329.96a1.585 1.585 0 0 0-.329.96c0 .772.551 1.418 1.28 1.567v.7c0 1.043.85 1.892 1.893 1.892h3.895a1.894 1.894 0 0 0 1.892-1.892v-.7a1.602 1.602 0 0 0 1.28-1.568c0-.361-.125-.691-.328-.96.203-.268.328-.598.328-.96 0-.882-.717-1.6-1.6-1.6zm0 1.28a.32.32 0 1 1 0 .64h-7.04a.32.32 0 0 1 0-.64h7.04zm-1.572 5.12h-3.895a.613.613 0 0 1-.613-.612v-.668h5.12v.668a.613.613 0 0 1-.612.612zm1.572-2.56h-7.04a.32.32 0 0 1 0-.64h7.04a.32.32 0 1 1 0 .64z" fill="#fff"/><path d="M18.034 16.785a10.23 10.23 0 0 0-1.84 2.932.64.64 0 0 0 1.183.488 8.949 8.949 0 0 1 1.61-2.566.64.64 0 0 0-.953-.854zm4.09-2.783a10.25 10.25 0 0 0-2.194 1.127.64.64 0 1 0 .718 1.06 8.94 8.94 0 0 1 1.919-.986.64.64 0 1 0-.443-1.201zm17.423 5.146a4.61 4.61 0 0 0-2.262-1.236c.096-1.047-.256-2.078-.987-2.809-.022-.033-.036-.07-.065-.099a3.2 3.2 0 0 0-2.884-.89 2.95 2.95 0 0 0-.854-2.019c-1.166-1.166-3.46-1.077-4.721.185a.64.64 0 0 0-.188.452v23.04a.64.64 0 0 0 .349.57 4.174 4.174 0 0 0 1.86.446c.761 0 1.513-.228 2.058-.773.12-.12.231-.25.331-.388 1.35.577 2.978.264 4.09-.848.99-.99 1.354-2.42.98-3.699.084-.07.165-.144.242-.222 1.099-1.098 1.454-2.694.96-4.068a5.18 5.18 0 0 0 .924-.733c1.951-1.951 2.026-5.05.167-6.91zm-1.87 6.6a3.482 3.482 0 0 0-2.09-.717 3.555 3.555 0 0 0-2.495 1.015.639.639 0 1 0 .9.91 2.24 2.24 0 0 1 3.132-.01c.495.968.288 2.186-.533 3.008-.13.13-.279.249-.455.363a.64.64 0 0 0-.23.806c.42.904.205 2.009-.537 2.75-.74.74-1.812.95-2.689.573l.001-.004.005-.837a2.52 2.52 0 0 0-2.502-2.533h-.004a.641.641 0 0 0-.249 1.23c.078.033.16.05.245.05a1.239 1.239 0 0 1 1.23 1.245l-.005.838.003.015c-.012.02-.032.034-.042.057-.1.224-.24.429-.414.603-.472.473-1.358.49-2.082.24V13.02c.8-.612 2.1-.644 2.724-.02.44.44.587 1.11.393 1.754-.093.073-.19.137-.275.221a3.18 3.18 0 0 0-.951 2.258 3.18 3.18 0 0 0 .923 2.268.638.638 0 0 0 .905.006.64.64 0 0 0 .005-.906 1.905 1.905 0 0 1-.554-1.36 1.909 1.909 0 0 1 1.508-1.859 2.237 2.237 0 0 1 1.848.624c.576.576.773 1.422.528 2.263a.638.638 0 0 0 .571.817 3.31 3.31 0 0 1 2.151.966c1.36 1.36 1.284 3.647-.167 5.099-.236.235-.51.427-.799.597z" fill="#fff"/></svg>