<svg width="48" height="49" fill="none" xmlns="http://www.w3.org/2000/svg"><g clip-path="url(#a)"><path d="M21.006 12.598a.75.75 0 0 1 .75-.75h11.73a.75.75 0 0 1 0 1.5h-11.73a.75.75 0 0 1-.75-.75zm-6.183 1.599a.747.747 0 0 0 1.06 0l2.3-2.299a.75.75 0 1 0-1.06-1.06l-1.77 1.768-.619-.619a.75.75 0 1 0-1.06 1.06l1.15 1.15zm6.933 7.15h11.73a.75.75 0 0 0 0-1.5h-11.73a.75.75 0 1 0 0 1.5zm-6.933.93a.748.748 0 0 0 1.06 0l2.3-2.3a.75.75 0 1 0-1.06-1.06l-1.77 1.769-.619-.62a.75.75 0 1 0-1.06 1.061l1.15 1.15zM44.57 35.58l-3.316 1.915a2.22 2.22 0 0 1-1.7.222 2.224 2.224 0 0 1-1.36-1.041l-.09-.157-1.678.856c.502.796.43 1.776-.012 2.534-.221.381-.538.71-.917.936.22.36.337.773.335 1.213a2.64 2.64 0 0 1-1.308 2.246c-.44.252-.925.349-1.412.293-.025.409-.15.81-.356 1.164-.436.747-1.237 1.288-2.158 1.264-.01.442-.139.879-.36 1.26-.426.73-1.2 1.264-2.095 1.264-.407 0-.84-.11-1.277-.365l-1.98-1.153-.386.548c-.483.686-1.19 1.067-1.965 1.067a2.643 2.643 0 0 1-2.316-1.454c-.836.431-1.808.274-2.526-.23a2.587 2.587 0 0 1-.991-1.347c-.69.15-1.411-.032-1.976-.429-.703-.495-1.175-1.332-1.076-2.242a2.638 2.638 0 0 1-1.233-.468c-1.005-.708-1.537-2.115-.608-3.436l.064-.091-2.486-3.105c-.3.428-.738.736-1.252.873a2.22 2.22 0 0 1-1.699-.222L3.12 35.581a2.242 2.242 0 0 1-.82-3.058L8.12 22.44c.173-.3.414-.555.702-.746V6.787a.75.75 0 0 1 .75-.75h28.546a.75.75 0 0 1 .75.75v14.908c.288.19.528.446.701.746l5.82 10.082a2.242 2.242 0 0 1-.819 3.058zM10.322 7.537v13.8c.302.035.594.132.858.284l3.316 1.915c.517.298.887.781 1.042 1.36.096.354.103.726.02 1.084l4.159 1.485c1.754-1.567 3.047-2.124 5.716-1.537 2.502.551 4.6.556 6.689.007-.072-.344-.062-.7.03-1.039a2.223 2.223 0 0 1 1.042-1.36l3.316-1.915c.264-.152.555-.25.858-.284v-13.8H10.322zm-2.126 28.39 5.82-10.082a.733.733 0 0 0 .073-.56.734.734 0 0 0-.343-.45L10.43 22.92a.74.74 0 0 0-1.01.27L3.6 33.274a.74.74 0 0 0 .27 1.01l3.316 1.914a.734.734 0 0 0 .56.072.733.733 0 0 0 .45-.342zm6.433 6.098 1.724-2.45v-.001c.524-.747-.113-1.251-.245-1.345-.133-.093-.824-.522-1.35.226l-1.722 2.448c-.526.748.111 1.253.244 1.346.133.094.823.523 1.349-.224zm2.456 2.502 2.408-3.423.366-.52c.526-.749-.111-1.253-.244-1.347-.133-.094-.823-.523-1.35.225l-.685.974v.001l-1.724 2.45-.51.727c-.527.748.11 1.253.243 1.346.133.094.824.522 1.35-.225l.146-.208zm3.366 1.208.002-.002.863-1.228.997-1.417c.526-.747-.111-1.252-.244-1.346-.133-.093-.822-.522-1.348.224h-.001l-2.408 3.424c-.525.748.111 1.252.244 1.346.133.093.824.522 1.35-.225l.545-.776zm3.441-.592c-.133-.094-.822-.523-1.348.224l-.864 1.229c-.22.312-.262.62-.125.915.157.34.527.6.899.632.324.03.6-.114.819-.426l.864-1.228c.526-.748-.111-1.253-.245-1.346zm10.886-7.312-9.275-5.368c-.834-.482-1.658-.135-2.933.47l-.186.089c-.093.187-.187.388-.285.596-.482 1.03-1.028 2.196-1.972 2.706-1.112.6-2.104.691-2.793.257-.318-.2-.843-.696-.791-1.778l.198-4.18a.75.75 0 0 1 .227-.503c.39-.378.74-.723 1.08-1.056l.448-.442-3.607-1.288-4.69 8.125 2.573 3.213.76-1.08c.929-1.321 2.433-1.297 3.438-.59.327.23.604.534.797.885.874-.56 1.94-.42 2.711.123.647.455 1.098 1.201 1.09 2.027a2.62 2.62 0 0 1 1.364.479c.89.626 1.408 1.8.872 2.977.342.077.665.22.952.423.856.602 1.368 1.712.927 2.844l1.938 1.129c.79.46 1.238-.218 1.32-.358.082-.141.45-.864-.338-1.325h-.001l-2.497-1.455a.75.75 0 1 1 .754-1.296l2.497 1.454.002.002.781.454c.79.46 1.238-.218 1.32-.358.082-.14.45-.864-.338-1.325h-.001l-3.062-1.783a.75.75 0 1 1 .755-1.296l3.062 1.783h.002l.98.571c.33.193.64.208.922.046.324-.185.552-.576.553-.95.001-.325-.165-.587-.495-.78l-.792-.46h-.001v-.001l-3.032-1.765a.751.751 0 1 1 .755-1.296l3.031 1.765c.79.459 1.238-.22 1.32-.36.081-.14.45-.865-.34-1.325zm2.575-2.612-4.567-7.91c-3.15.888-5.868.482-7.675.084-2.64-.58-3.288.057-6.011 2.74-.29.287-.582.573-.875.858l-.184 3.884c-.012.255.037.403.091.437.127.08.588.067 1.282-.308.509-.274.943-1.203 1.326-2.021.14-.297.283-.605.431-.884.077-.144.2-.26.349-.329l.406-.191c1.298-.616 2.769-1.315 4.328-.415l8.923 5.166 2.176-1.111zm6.738-1.947L38.27 23.192a.74.74 0 0 0-1.01-.27l-3.316 1.914a.734.734 0 0 0-.343.45.733.733 0 0 0 .072.56l5.82 10.082c.099.17.258.291.45.342a.732.732 0 0 0 .56-.072l3.317-1.915a.74.74 0 0 0 .27-1.01z" fill="#fff"/></g><defs><clipPath id="a"><path fill="#fff" transform="translate(0 .037)" d="M0 0h48v48H0z"/></clipPath></defs></svg>