<svg width="40" height="40" fill="none" xmlns="http://www.w3.org/2000/svg"><path d="M19.167 26.666h1.666v11.667h-1.666V26.667zM7.5 23.334h25V25h-25v-1.667zM35.833 12.5a4.171 4.171 0 0 1-4.166-4.167 4.172 4.172 0 0 1 4.166-4.167A4.171 4.171 0 0 1 40 8.334a4.171 4.171 0 0 1-4.167 4.167zm0-6.667a2.503 2.503 0 0 0-2.5 2.5c0 1.378 1.122 2.5 2.5 2.5 1.379 0 2.5-1.122 2.5-2.5s-1.121-2.5-2.5-2.5z" fill="#fff"/><path d="M27.5 38.333a.832.832 0 0 1-.766-1.162l2.5-5.833a.832.832 0 0 1 .766-.505h5.834c1.378 0 2.5-1.121 2.5-2.5V17.5c0-.92-.748-1.667-1.667-1.667h-.834c-.584 0-1.117.387-1.834 1.337-.806 1.063-3.249 4.063-3.352 4.19a.835.835 0 0 1-.647.306h-4.166A.834.834 0 0 0 25 22.5v1.666a.835.835 0 0 1-1.423.59.831.831 0 0 1-.244-.59V22.5c0-1.379 1.122-2.5 2.5-2.5h3.77c.657-.808 2.427-2.992 3.066-3.836.704-.93 1.698-1.998 3.165-1.998h.833A3.337 3.337 0 0 1 40 17.5v10.833a4.171 4.171 0 0 1-4.166 4.167h-5.285l-2.283 5.328a.832.832 0 0 1-.766.505z" fill="#fff"/><path d="M24.166 38.334a.833.833 0 0 1-.79-1.098l2.764-8.29a3.327 3.327 0 0 1 3.162-2.28h2.364v-2.5a.832.832 0 1 1 1.667 0V27.5a.836.836 0 0 1-.833.834h-3.198c-.719 0-1.355.457-1.58 1.138l-2.765 8.291a.835.835 0 0 1-.79.57z" fill="#fff"/><path d="M32.5 25a.832.832 0 0 1-.666-1.332l2.5-3.334a.833.833 0 1 1 1.332 1l-2.5 3.333a.828.828 0 0 1-.667.333zM4.166 12.5A4.171 4.171 0 0 1 0 8.333a4.171 4.171 0 0 1 4.167-4.167 4.172 4.172 0 0 1 4.166 4.167A4.171 4.171 0 0 1 4.167 12.5zm0-6.667a2.503 2.503 0 0 0-2.5 2.5c0 1.378 1.121 2.5 2.5 2.5 1.378 0 2.5-1.122 2.5-2.5s-1.122-2.5-2.5-2.5zm8.333 32.5a.832.832 0 0 1-.766-.505L9.451 32.5H4.167A4.171 4.171 0 0 1 0 28.333V17.5a3.337 3.337 0 0 1 3.333-3.334h.834c1.466 0 2.461 1.068 3.164 1.998.639.844 2.408 3.027 3.065 3.836h3.77c1.38 0 2.5 1.121 2.5 2.5v1.666a.833.833 0 1 1-1.666 0V22.5a.834.834 0 0 0-.833-.834H10a.832.832 0 0 1-.646-.306c-.103-.127-2.547-3.127-3.351-4.19-.719-.95-1.25-1.337-1.836-1.337h-.834c-.919 0-1.666.748-1.666 1.667v10.833c0 1.379 1.121 2.5 2.5 2.5H10a.832.832 0 0 1 .766.505l2.5 5.834a.833.833 0 0 1-.766 1.161z" fill="#fff"/><path d="M15.833 38.334a.834.834 0 0 1-.79-.57l-2.764-8.292a1.664 1.664 0 0 0-1.58-1.139h-3.2a.833.833 0 0 1-.832-.833v-3.333a.833.833 0 1 1 1.666 0v2.5h2.365a3.329 3.329 0 0 1 3.163 2.278l2.763 8.29a.833.833 0 0 1-.79 1.099z" fill="#fff"/><path d="M7.501 25a.835.835 0 0 1-.668-.333l-2.5-3.334a.833.833 0 0 1 1.334-1l2.5 3.335A.832.832 0 0 1 7.5 25zm19.166-3.333a.834.834 0 0 1-.833-.834V15a3.337 3.337 0 0 0-3.334-3.333h-5A3.337 3.337 0 0 0 14.167 15v2.5a.834.834 0 0 1-1.667 0V15c0-2.758 2.243-5 5-5h5c2.758 0 5 2.242 5 5v5.833c0 .461-.372.834-.833.834zM20 8.333a4.171 4.171 0 0 1-4.166-4.166A4.171 4.171 0 0 1 20 0a4.171 4.171 0 0 1 4.167 4.167A4.171 4.171 0 0 1 20 8.333zm0-6.666a2.503 2.503 0 0 0-2.5 2.5c0 1.378 1.122 2.5 2.5 2.5 1.379 0 2.5-1.122 2.5-2.5 0-1.379-1.121-2.5-2.5-2.5z" fill="#fff"/><path d="M19.166 13.334h1.667V15h-1.666v-1.666z" fill="#fff"/></svg>