<svg width="341" height="341" viewBox="0 0 341 341" fill="none" xmlns="http://www.w3.org/2000/svg">
<g clip-path="url(#clip0_62_398)">
<path d="M170.5 341C264.665 341 341 264.665 341 170.5C341 76.3355 264.665 0 170.5 0C76.3355 0 0 76.3355 0 170.5C0 264.665 76.3355 341 170.5 341Z" fill="#FAD24D"/>
<path d="M170.5 290.391C237.549 290.391 291.903 286.107 291.903 280.821C291.903 275.535 237.549 271.25 170.5 271.25C103.451 271.25 49.0967 275.535 49.0967 280.821C49.0967 286.107 103.451 290.391 170.5 290.391Z" fill="#EDB937"/>
<path fill-rule="evenodd" clip-rule="evenodd" d="M43.945 44.7722H297.055C305.369 44.7722 312.174 51.5777 312.174 59.892V215.812H28.8252V59.892C28.8252 51.5777 35.6275 44.7722 43.945 44.7722Z" fill="#666666"/>
<path fill-rule="evenodd" clip-rule="evenodd" d="M39.0908 205.544H301.907V59.8921C301.907 57.2438 299.703 55.0374 297.055 55.0374H43.9456C41.2972 55.0374 39.094 57.2406 39.094 59.8921V205.544H39.0908Z" fill="#DCE3DB"/>
<path fill-rule="evenodd" clip-rule="evenodd" d="M312.174 215.809V232.343C312.174 240.66 304.674 247.463 295.508 247.463H45.4946C36.328 247.463 28.8281 240.66 28.8281 232.343V215.809H312.177H312.174Z" fill="white"/>
<path d="M170.5 236.181C173.375 236.181 175.705 233.851 175.705 230.976C175.705 228.101 173.375 225.771 170.5 225.771C167.625 225.771 165.295 228.101 165.295 230.976C165.295 233.851 167.625 236.181 170.5 236.181Z" fill="#B6B6B8"/>
<path fill-rule="evenodd" clip-rule="evenodd" d="M203.18 271.25L227.22 278.952H113.78L133.177 271.25V247.466H203.18V271.25Z" fill="#C2C2C4"/>
<path fill-rule="evenodd" clip-rule="evenodd" d="M133.177 271.25H203.18L227.22 278.952V282.27H113.78V278.952L133.177 271.25Z" fill="#ECF0F1"/>
<path fill-rule="evenodd" clip-rule="evenodd" d="M133.177 247.466H203.179V271.657L133.177 247.466Z" fill="#919191"/>
<path fill-rule="evenodd" clip-rule="evenodd" d="M99.6108 72.1582H262.494C265.051 72.1582 267.144 74.251 267.144 76.8078V205.541H73.8535V76.8078C73.8535 74.251 75.9463 72.1582 78.5031 72.1582H99.6076H99.6108Z" fill="white"/>
<path fill-rule="evenodd" clip-rule="evenodd" d="M78.506 72.1582H262.497C265.054 72.1582 267.147 74.251 267.147 76.8078V86.1069H73.8564V76.8078C73.8564 74.251 75.9492 72.1582 78.506 72.1582Z" fill="#828282"/>
<path fill-rule="evenodd" clip-rule="evenodd" d="M159.906 76.9751H253.276C253.965 76.9751 254.526 77.537 254.526 78.2251V80.542C254.526 81.2301 253.965 81.792 253.276 81.792H159.906C159.218 81.792 158.656 81.2301 158.656 80.542V78.2251C158.656 77.537 159.218 76.9751 159.906 76.9751Z" fill="white"/>
<path fill-rule="evenodd" clip-rule="evenodd" d="M83.1301 76.145C84.6073 76.145 85.8068 77.3413 85.8068 78.8218C85.8068 80.3022 84.6073 81.4985 83.1301 81.4985C81.6497 81.4985 80.4502 80.299 80.4502 78.8218C80.4502 77.3413 81.6497 76.145 83.1301 76.145Z" fill="#21D0C3"/>
<path fill-rule="evenodd" clip-rule="evenodd" d="M93.6982 76.145C95.1786 76.145 96.375 77.3413 96.375 78.8218C96.375 80.3022 95.1786 81.4985 93.6982 81.4985C92.221 81.4985 91.0215 80.299 91.0215 78.8218C91.0215 77.3413 92.221 76.145 93.6982 76.145Z" fill="#FAD24D"/>
<path fill-rule="evenodd" clip-rule="evenodd" d="M104.27 76.145C105.747 76.145 106.946 77.3413 106.946 78.8218C106.946 80.3022 105.747 81.4985 104.27 81.4985C102.789 81.4985 101.59 80.299 101.59 78.8218C101.59 77.3413 102.789 76.145 104.27 76.145Z" fill="#FF5B62"/>
<path d="M170.501 160.62C188.509 160.62 203.107 146.022 203.107 128.013C203.107 110.005 188.509 95.4062 170.501 95.4062C152.492 95.4062 137.894 110.005 137.894 128.013C137.894 146.022 152.492 160.62 170.501 160.62Z" fill="#ECF0F1"/>
<path d="M154.222 196.2C172.231 196.2 186.829 181.602 186.829 163.594C186.829 145.585 172.231 130.987 154.222 130.987C136.214 130.987 121.615 145.585 121.615 163.594C121.615 181.602 136.214 196.2 154.222 196.2Z" fill="#ECF0F1"/>
<path d="M186.779 196.2C204.787 196.2 219.386 181.602 219.386 163.594C219.386 145.585 204.787 130.987 186.779 130.987C168.771 130.987 154.172 145.585 154.172 163.594C154.172 181.602 168.771 196.2 186.779 196.2Z" fill="#ECF0F1"/>
<path fill-rule="evenodd" clip-rule="evenodd" d="M186.09 156.659C184.117 147.549 178.337 139.856 170.5 135.33C162.662 139.853 156.879 147.546 154.906 156.659C159.537 159.184 164.849 160.62 170.5 160.62C176.147 160.62 181.459 159.184 186.09 156.659Z" fill="#666666"/>
<path fill-rule="evenodd" clip-rule="evenodd" d="M170.5 135.33C178.338 139.853 184.117 147.546 186.09 156.659C194.278 152.192 200.339 144.32 202.369 134.945C197.738 132.42 192.422 130.983 186.775 130.983C180.847 130.983 175.289 132.565 170.497 135.33H170.5Z" fill="#21D0C3"/>
<path fill-rule="evenodd" clip-rule="evenodd" d="M154.907 156.659C156.88 147.549 162.66 139.856 170.5 135.33C165.709 132.565 160.15 130.983 154.222 130.983C148.575 130.983 143.263 132.42 138.629 134.945C140.659 144.32 146.719 152.192 154.907 156.655V156.659Z" fill="#FAD24D"/>
<path fill-rule="evenodd" clip-rule="evenodd" d="M170.5 160.62C164.853 160.62 159.54 159.184 154.907 156.659C154.424 158.894 154.168 161.214 154.168 163.594C154.168 175.674 160.737 186.22 170.5 191.854C180.26 186.22 186.829 175.674 186.829 163.594C186.829 161.214 186.573 158.894 186.09 156.662C181.456 159.187 176.147 160.623 170.5 160.623V160.62Z" fill="#FF5B62"/>
</g>
<defs>
<clipPath id="clip0_62_398">
<rect width="341" height="341" fill="white"/>
</clipPath>
</defs>
</svg>
